<?xml version="1.0" encoding="UTF-8" standalone="no"?>
<!DOCTYPE svg PUBLIC "-//W3C//DTD SVG 1.1//EN"
 "http://www.w3.org/Graphics/SVG/1.1/DTD/svg11.dtd">
<!-- Generated by graphviz version 2.43.0 (0)
 -->
<!-- Title: G Pages: 1 -->
<svg width="2032pt" height="1641pt"
 viewBox="0.00 0.00 2032.20 1641.45" xmlns="http://www.w3.org/2000/svg" xmlns:xlink="http://www.w3.org/1999/xlink">
<g id="graph0" class="graph" transform="scale(1 1) rotate(0) translate(21.6 1619.85)">
<title>G</title>
<polygon fill="#111111" stroke="transparent" points="-21.6,21.6 -21.6,-1619.85 2010.6,-1619.85 2010.6,21.6 -21.6,21.6"/>
<!-- ../constants/appConstants.ts -->
<g id="node1" class="node">
<title>../constants/appConstants.ts</title>
<path fill="none" stroke="#c6c5fe" d="M1549.33,-1133.32C1549.33,-1133.32 1377.67,-1133.32 1377.67,-1133.32 1373.83,-1133.32 1370,-1129.49 1370,-1125.65 1370,-1125.65 1370,-1117.99 1370,-1117.99 1370,-1114.15 1373.83,-1110.32 1377.67,-1110.32 1377.67,-1110.32 1549.33,-1110.32 1549.33,-1110.32 1553.17,-1110.32 1557,-1114.15 1557,-1117.99 1557,-1117.99 1557,-1125.65 1557,-1125.65 1557,-1129.49 1553.17,-1133.32 1549.33,-1133.32"/>
<text text-anchor="middle" x="1463.5" y="-1118.12" font-family="Arial" font-size="14.00" fill="#c6c5fe">../constants/appConstants.ts</text>
</g>
<!-- ../constants/riskConstants.ts -->
<g id="node2" class="node">
<title>../constants/riskConstants.ts</title>
<path fill="none" stroke="#cfffac" d="M1981.33,-230.32C1981.33,-230.32 1811.67,-230.32 1811.67,-230.32 1807.83,-230.32 1804,-226.49 1804,-222.65 1804,-222.65 1804,-214.99 1804,-214.99 1804,-211.15 1807.83,-207.32 1811.67,-207.32 1811.67,-207.32 1981.33,-207.32 1981.33,-207.32 1985.17,-207.32 1989,-211.15 1989,-214.99 1989,-214.99 1989,-222.65 1989,-222.65 1989,-226.49 1985.17,-230.32 1981.33,-230.32"/>
<text text-anchor="middle" x="1896.5" y="-215.12" font-family="Arial" font-size="14.00" fill="#cfffac">../constants/riskConstants.ts</text>
</g>
<!-- ../constants/appConstants.ts&#45;&gt;../constants/riskConstants.ts -->
<g id="edge1" class="edge">
<title>../constants/appConstants.ts&#45;&gt;../constants/riskConstants.ts</title>
<path fill="none" stroke="#757575" d="M1470.14,-1110.25C1500.66,-1047.59 1649.1,-742.46 1768,-491.82 1812.5,-398.01 1864.64,-285.55 1885.82,-239.76"/>
<polygon fill="#757575" stroke="#757575" points="1889.06,-241.1 1890.08,-230.55 1882.71,-238.16 1889.06,-241.1"/>
</g>
<!-- ../constants/uiConstants.ts -->
<g id="node3" class="node">
<title>../constants/uiConstants.ts</title>
<path fill="none" stroke="#cfffac" d="M1760.33,-424.32C1760.33,-424.32 1600.67,-424.32 1600.67,-424.32 1596.83,-424.32 1593,-420.49 1593,-416.65 1593,-416.65 1593,-408.99 1593,-408.99 1593,-405.15 1596.83,-401.32 1600.67,-401.32 1600.67,-401.32 1760.33,-401.32 1760.33,-401.32 1764.17,-401.32 1768,-405.15 1768,-408.99 1768,-408.99 1768,-416.65 1768,-416.65 1768,-420.49 1764.17,-424.32 1760.33,-424.32"/>
<text text-anchor="middle" x="1680.5" y="-409.12" font-family="Arial" font-size="14.00" fill="#cfffac">../constants/uiConstants.ts</text>
</g>
<!-- ../constants/appConstants.ts&#45;&gt;../constants/uiConstants.ts -->
<g id="edge2" class="edge">
<title>../constants/appConstants.ts&#45;&gt;../constants/uiConstants.ts</title>
<path fill="none" stroke="#757575" d="M1466.42,-1110.12C1480.77,-1023.03 1571.23,-478.12 1593,-450.82 1600.67,-441.2 1611.27,-433.96 1622.42,-428.52"/>
<polygon fill="#757575" stroke="#757575" points="1624.13,-431.59 1631.87,-424.37 1621.31,-425.19 1624.13,-431.59"/>
</g>
<!-- ../types/cia.ts -->
<g id="node4" class="node">
<title>../types/cia.ts</title>
<path fill="none" stroke="#c6c5fe" d="M1720.33,-483.32C1720.33,-483.32 1640.67,-483.32 1640.67,-483.32 1636.83,-483.32 1633,-479.49 1633,-475.65 1633,-475.65 1633,-467.99 1633,-467.99 1633,-464.15 1636.83,-460.32 1640.67,-460.32 1640.67,-460.32 1720.33,-460.32 1720.33,-460.32 1724.17,-460.32 1728,-464.15 1728,-467.99 1728,-467.99 1728,-475.65 1728,-475.65 1728,-479.49 1724.17,-483.32 1720.33,-483.32"/>
<text text-anchor="middle" x="1680.5" y="-468.12" font-family="Arial" font-size="14.00" fill="#c6c5fe">../types/cia.ts</text>
</g>
<!-- ../constants/appConstants.ts&#45;&gt;../types/cia.ts -->
<g id="edge3" class="edge">
<title>../constants/appConstants.ts&#45;&gt;../types/cia.ts</title>
<path fill="none" stroke="#757575" d="M1468.32,-1110.26C1493.79,-1033.27 1638.88,-594.63 1672.53,-492.89"/>
<polygon fill="#757575" stroke="#757575" points="1675.86,-493.98 1675.67,-483.39 1669.21,-491.78 1675.86,-493.98"/>
</g>
<!-- ../types/cia.ts&#45;&gt;../constants/riskConstants.ts -->
<g id="edge18" class="edge">
<title>../types/cia.ts&#45;&gt;../constants/riskConstants.ts</title>
<path fill="none" stroke="#757575" d="M1720.18,-460.17C1736.28,-453.94 1754.36,-444.99 1768,-432.82 1830.92,-376.68 1871.96,-281.92 1887.94,-239.93"/>
<polygon fill="#757575" stroke="#757575" points="1891.27,-241.04 1891.47,-230.45 1884.7,-238.6 1891.27,-241.04"/>
</g>
<!-- ../constants/businessConstants.ts -->
<g id="node5" class="node">
<title>../constants/businessConstants.ts</title>
<path fill="none" stroke="#c6c5fe" d="M1326.33,-76.32C1326.33,-76.32 1123.67,-76.32 1123.67,-76.32 1119.83,-76.32 1116,-72.49 1116,-68.65 1116,-68.65 1116,-60.99 1116,-60.99 1116,-57.15 1119.83,-53.32 1123.67,-53.32 1123.67,-53.32 1326.33,-53.32 1326.33,-53.32 1330.17,-53.32 1334,-57.15 1334,-60.99 1334,-60.99 1334,-68.65 1334,-68.65 1334,-72.49 1330.17,-76.32 1326.33,-76.32"/>
<text text-anchor="middle" x="1225" y="-61.12" font-family="Arial" font-size="14.00" fill="#c6c5fe">../constants/businessConstants.ts</text>
</g>
<!-- ../constants/businessConstants.ts&#45;&gt;../constants/riskConstants.ts -->
<g id="edge4" class="edge">
<title>../constants/businessConstants.ts&#45;&gt;../constants/riskConstants.ts</title>
<path fill="none" stroke="#757575" d="M1280.38,-76.32C1378.18,-97.16 1590.15,-142.96 1768,-185.82 1792.59,-191.74 1819.74,-198.71 1842.64,-204.71"/>
<polygon fill="#757575" stroke="#757575" points="1841.95,-208.15 1852.51,-207.31 1843.73,-201.38 1841.95,-208.15"/>
</g>
<!-- ../types/businessImpact.ts -->
<g id="node6" class="node">
<title>../types/businessImpact.ts</title>
<path fill="none" stroke="#c6c5fe" d="M1542.33,-190.32C1542.33,-190.32 1384.67,-190.32 1384.67,-190.32 1380.83,-190.32 1377,-186.49 1377,-182.65 1377,-182.65 1377,-174.99 1377,-174.99 1377,-171.15 1380.83,-167.32 1384.67,-167.32 1384.67,-167.32 1542.33,-167.32 1542.33,-167.32 1546.17,-167.32 1550,-171.15 1550,-174.99 1550,-174.99 1550,-182.65 1550,-182.65 1550,-186.49 1546.17,-190.32 1542.33,-190.32"/>
<text text-anchor="middle" x="1463.5" y="-175.12" font-family="Arial" font-size="14.00" fill="#c6c5fe">../types/businessImpact.ts</text>
</g>
<!-- ../constants/businessConstants.ts&#45;&gt;../types/businessImpact.ts -->
<g id="edge5" class="edge">
<title>../constants/businessConstants.ts&#45;&gt;../types/businessImpact.ts</title>
<path fill="none" stroke="#757575" d="M1290.98,-76.34C1305.48,-80.03 1320.54,-84.78 1334,-90.82 1351.77,-98.79 1353.95,-104.78 1370,-115.82 1392.56,-131.34 1418.32,-148.86 1436.91,-161.48"/>
<polygon fill="#757575" stroke="#757575" points="1435.18,-164.54 1445.42,-167.25 1439.11,-158.74 1435.18,-164.54"/>
</g>
<!-- ../types/businessImpact.ts&#45;&gt;../constants/riskConstants.ts -->
<g id="edge17" class="edge">
<title>../types/businessImpact.ts&#45;&gt;../constants/riskConstants.ts</title>
<path fill="none" stroke="#757575" d="M1550.24,-185.61C1611.05,-190.57 1694.58,-197.64 1768,-204.82 1776.36,-205.64 1785.03,-206.52 1793.73,-207.42"/>
<polygon fill="#757575" stroke="#757575" points="1793.63,-210.93 1803.94,-208.5 1794.37,-203.97 1793.63,-210.93"/>
</g>
<!-- ../constants/coreConstants.ts -->
<g id="node7" class="node">
<title>../constants/coreConstants.ts</title>
<path fill="none" stroke="#c6c5fe" d="M1312.83,-346.32C1312.83,-346.32 1137.17,-346.32 1137.17,-346.32 1133.33,-346.32 1129.5,-342.49 1129.5,-338.65 1129.5,-338.65 1129.5,-330.99 1129.5,-330.99 1129.5,-327.15 1133.33,-323.32 1137.17,-323.32 1137.17,-323.32 1312.83,-323.32 1312.83,-323.32 1316.67,-323.32 1320.5,-327.15 1320.5,-330.99 1320.5,-330.99 1320.5,-338.65 1320.5,-338.65 1320.5,-342.49 1316.67,-346.32 1312.83,-346.32"/>
<text text-anchor="middle" x="1225" y="-331.12" font-family="Arial" font-size="14.00" fill="#c6c5fe">../constants/coreConstants.ts</text>
</g>
<!-- ../constants/coreConstants.ts&#45;&gt;../types/cia.ts -->
<g id="edge6" class="edge">
<title>../constants/coreConstants.ts&#45;&gt;../types/cia.ts</title>
<path fill="none" stroke="#757575" d="M1277.3,-346.34C1295.3,-350.6 1315.62,-355.66 1334,-360.82 1444.2,-391.74 1571.99,-434.68 1636.91,-457"/>
<polygon fill="#757575" stroke="#757575" points="1635.8,-460.32 1646.4,-460.27 1638.08,-453.7 1635.8,-460.32"/>
</g>
<!-- ../constants/index.ts -->
<g id="node8" class="node">
<title>../constants/index.ts</title>
<path fill="none" stroke="#c6c5fe" d="M1020.33,-306.32C1020.33,-306.32 899.67,-306.32 899.67,-306.32 895.83,-306.32 892,-302.49 892,-298.65 892,-298.65 892,-290.99 892,-290.99 892,-287.15 895.83,-283.32 899.67,-283.32 899.67,-283.32 1020.33,-283.32 1020.33,-283.32 1024.17,-283.32 1028,-287.15 1028,-290.99 1028,-290.99 1028,-298.65 1028,-298.65 1028,-302.49 1024.17,-306.32 1020.33,-306.32"/>
<text text-anchor="middle" x="960" y="-291.12" font-family="Arial" font-size="14.00" fill="#c6c5fe">../constants/index.ts</text>
</g>
<!-- ../constants/index.ts&#45;&gt;../constants/appConstants.ts -->
<g id="edge7" class="edge">
<title>../constants/index.ts&#45;&gt;../constants/appConstants.ts</title>
<path fill="none" stroke="#757575" d="M982.75,-306.53C1047.33,-342.48 1239.35,-458.08 1334,-609.82 1438.49,-777.34 1458.12,-1025.52 1461.71,-1099.95"/>
<polygon fill="#757575" stroke="#757575" points="1458.22,-1100.17 1462.15,-1110.01 1465.21,-1099.86 1458.22,-1100.17"/>
</g>
<!-- ../constants/index.ts&#45;&gt;../constants/riskConstants.ts -->
<g id="edge10" class="edge">
<title>../constants/index.ts&#45;&gt;../constants/riskConstants.ts</title>
<path fill="none" stroke="#757575" d="M1028.21,-289.35C1189.89,-276.2 1601.38,-242.74 1793.63,-227.1"/>
<polygon fill="#757575" stroke="#757575" points="1794.05,-230.58 1803.74,-226.28 1793.49,-223.6 1794.05,-230.58"/>
</g>
<!-- ../constants/index.ts&#45;&gt;../constants/uiConstants.ts -->
<g id="edge12" class="edge">
<title>../constants/index.ts&#45;&gt;../constants/uiConstants.ts</title>
<path fill="none" stroke="#757575" d="M1028.07,-294.48C1103.02,-294.97 1227.8,-298.39 1334,-313.82 1434.92,-328.48 1459.42,-338.19 1557,-367.82 1585.58,-376.5 1617.21,-388.17 1641.17,-397.45"/>
<polygon fill="#757575" stroke="#757575" points="1640.02,-400.76 1650.61,-401.14 1642.57,-394.24 1640.02,-400.76"/>
</g>
<!-- ../constants/index.ts&#45;&gt;../constants/businessConstants.ts -->
<g id="edge8" class="edge">
<title>../constants/index.ts&#45;&gt;../constants/businessConstants.ts</title>
<path fill="none" stroke="#757575" d="M974.4,-283.1C1017.23,-245.65 1150.98,-128.68 1203,-83.18"/>
<polygon fill="#757575" stroke="#757575" points="1205.4,-85.73 1210.62,-76.52 1200.79,-80.47 1205.4,-85.73"/>
</g>
<!-- ../constants/index.ts&#45;&gt;../types/businessImpact.ts -->
<g id="edge13" class="edge">
<title>../constants/index.ts&#45;&gt;../types/businessImpact.ts</title>
<path fill="none" stroke="#757575" d="M991.2,-283.27C1022.17,-271.77 1071.9,-254.23 1116,-242.82 1201.94,-220.58 1301.79,-202.99 1372.16,-191.92"/>
<polygon fill="#757575" stroke="#757575" points="1372.98,-195.34 1382.32,-190.34 1371.9,-188.42 1372.98,-195.34"/>
</g>
<!-- ../constants/index.ts&#45;&gt;../constants/coreConstants.ts -->
<g id="edge9" class="edge">
<title>../constants/index.ts&#45;&gt;../constants/coreConstants.ts</title>
<path fill="none" stroke="#757575" d="M1028.05,-305.02C1061.57,-310.11 1102.52,-316.34 1138.3,-321.79"/>
<polygon fill="#757575" stroke="#757575" points="1137.84,-325.25 1148.25,-323.3 1138.89,-318.33 1137.84,-325.25"/>
</g>
<!-- ../constants/testIds.ts -->
<g id="node9" class="node">
<title>../constants/testIds.ts</title>
<path fill="none" stroke="#c6c5fe" d="M1288.83,-935.32C1288.83,-935.32 1161.17,-935.32 1161.17,-935.32 1157.33,-935.32 1153.5,-931.49 1153.5,-927.65 1153.5,-927.65 1153.5,-919.99 1153.5,-919.99 1153.5,-916.15 1157.33,-912.32 1161.17,-912.32 1161.17,-912.32 1288.83,-912.32 1288.83,-912.32 1292.67,-912.32 1296.5,-916.15 1296.5,-919.99 1296.5,-919.99 1296.5,-927.65 1296.5,-927.65 1296.5,-931.49 1292.67,-935.32 1288.83,-935.32"/>
<text text-anchor="middle" x="1225" y="-920.12" font-family="Arial" font-size="14.00" fill="#c6c5fe">../constants/testIds.ts</text>
</g>
<!-- ../constants/index.ts&#45;&gt;../constants/testIds.ts -->
<g id="edge11" class="edge">
<title>../constants/index.ts&#45;&gt;../constants/testIds.ts</title>
<path fill="none" stroke="#757575" d="M970.63,-306.62C992.7,-334.17 1047.56,-405.51 1080,-472.82 1155.57,-629.6 1204.65,-835.58 1219.35,-902.11"/>
<polygon fill="#757575" stroke="#757575" points="1216.01,-903.19 1221.56,-912.21 1222.85,-901.7 1216.01,-903.19"/>
</g>
<!-- ../constants/testIds.ts&#45;&gt;../constants/appConstants.ts -->
<g id="edge14" class="edge">
<title>../constants/testIds.ts&#45;&gt;../constants/appConstants.ts</title>
<path fill="none" stroke="#757575" d="M1239.74,-935.32C1279.17,-968.33 1392.94,-1063.59 1440.84,-1103.68"/>
<polygon fill="#757575" stroke="#757575" points="1438.81,-1106.55 1448.72,-1110.29 1443.3,-1101.18 1438.81,-1106.55"/>
</g>
<!-- ../hooks/useCIAOptions.ts -->
<g id="node10" class="node">
<title>../hooks/useCIAOptions.ts</title>
<path fill="none" stroke="#c6c5fe" d="M1038.83,-1481.32C1038.83,-1481.32 881.17,-1481.32 881.17,-1481.32 877.33,-1481.32 873.5,-1477.49 873.5,-1473.65 873.5,-1473.65 873.5,-1465.99 873.5,-1465.99 873.5,-1462.15 877.33,-1458.32 881.17,-1458.32 881.17,-1458.32 1038.83,-1458.32 1038.83,-1458.32 1042.67,-1458.32 1046.5,-1462.15 1046.5,-1465.99 1046.5,-1465.99 1046.5,-1473.65 1046.5,-1473.65 1046.5,-1477.49 1042.67,-1481.32 1038.83,-1481.32"/>
<text text-anchor="middle" x="960" y="-1466.12" font-family="Arial" font-size="14.00" fill="#c6c5fe">../hooks/useCIAOptions.ts</text>
</g>
<!-- ../hooks/useCIAOptions.ts&#45;&gt;../constants/riskConstants.ts -->
<g id="edge15" class="edge">
<title>../hooks/useCIAOptions.ts&#45;&gt;../constants/riskConstants.ts</title>
<path fill="none" stroke="#757575" d="M986.42,-1481.48C1048.19,-1508.07 1210.19,-1567.38 1334,-1519.82 1458.55,-1471.97 1483.93,-1430.46 1557,-1318.82 1807.42,-936.18 1880.63,-358.52 1893.34,-240.37"/>
<polygon fill="#757575" stroke="#757575" points="1896.82,-240.71 1894.38,-230.4 1889.86,-239.98 1896.82,-240.71"/>
</g>
<!-- ../hooks/useCIAOptions.ts&#45;&gt;../types/cia.ts -->
<g id="edge16" class="edge">
<title>../hooks/useCIAOptions.ts&#45;&gt;../types/cia.ts</title>
<path fill="none" stroke="#757575" d="M990.4,-1481.33C1056.55,-1505.23 1220.19,-1553.06 1334,-1490.82 1495.17,-1402.68 1489.68,-1313.74 1557,-1142.82 1652.53,-900.3 1674.35,-578.75 1678.58,-493.38"/>
<polygon fill="#757575" stroke="#757575" points="1682.08,-493.49 1679.05,-483.34 1675.09,-493.16 1682.08,-493.49"/>
</g>
<!-- ../styles/gridStyles.ts -->
<g id="node11" class="node">
<title>../styles/gridStyles.ts</title>
<path fill="none" stroke="#cfffac" d="M410.33,-1441.32C410.33,-1441.32 285.67,-1441.32 285.67,-1441.32 281.83,-1441.32 278,-1437.49 278,-1433.65 278,-1433.65 278,-1425.99 278,-1425.99 278,-1422.15 281.83,-1418.32 285.67,-1418.32 285.67,-1418.32 410.33,-1418.32 410.33,-1418.32 414.17,-1418.32 418,-1422.15 418,-1425.99 418,-1425.99 418,-1433.65 418,-1433.65 418,-1437.49 414.17,-1441.32 410.33,-1441.32"/>
<text text-anchor="middle" x="348" y="-1426.12" font-family="Arial" font-size="14.00" fill="#cfffac">../styles/gridStyles.ts</text>
</g>
<!-- ../tests/mockConstants.ts -->
<g id="node12" class="node">
<title>../tests/mockConstants.ts</title>
<path fill="none" stroke="#cfffac" d="M160.33,-1502.32C160.33,-1502.32 7.67,-1502.32 7.67,-1502.32 3.83,-1502.32 0,-1498.49 0,-1494.65 0,-1494.65 0,-1486.99 0,-1486.99 0,-1483.15 3.83,-1479.32 7.67,-1479.32 7.67,-1479.32 160.33,-1479.32 160.33,-1479.32 164.17,-1479.32 168,-1483.15 168,-1486.99 168,-1486.99 168,-1494.65 168,-1494.65 168,-1498.49 164.17,-1502.32 160.33,-1502.32"/>
<text text-anchor="middle" x="84" y="-1487.12" font-family="Arial" font-size="14.00" fill="#cfffac">../tests/mockConstants.ts</text>
</g>
<!-- ../types/widgets.ts -->
<g id="node13" class="node">
<title>../types/widgets.ts</title>
<path fill="none" stroke="#cfffac" d="M1014.33,-894.32C1014.33,-894.32 905.67,-894.32 905.67,-894.32 901.83,-894.32 898,-890.49 898,-886.65 898,-886.65 898,-878.99 898,-878.99 898,-875.15 901.83,-871.32 905.67,-871.32 905.67,-871.32 1014.33,-871.32 1014.33,-871.32 1018.17,-871.32 1022,-875.15 1022,-878.99 1022,-878.99 1022,-886.65 1022,-886.65 1022,-890.49 1018.17,-894.32 1014.33,-894.32"/>
<text text-anchor="middle" x="960" y="-879.12" font-family="Arial" font-size="14.00" fill="#cfffac">../types/widgets.ts</text>
</g>
<!-- ../utils/typeGuards.ts -->
<g id="node14" class="node">
<title>../utils/typeGuards.ts</title>
<path fill="none" stroke="#c6c5fe" d="M1525.83,-569.32C1525.83,-569.32 1401.17,-569.32 1401.17,-569.32 1397.33,-569.32 1393.5,-565.49 1393.5,-561.65 1393.5,-561.65 1393.5,-553.99 1393.5,-553.99 1393.5,-550.15 1397.33,-546.32 1401.17,-546.32 1401.17,-546.32 1525.83,-546.32 1525.83,-546.32 1529.67,-546.32 1533.5,-550.15 1533.5,-553.99 1533.5,-553.99 1533.5,-561.65 1533.5,-561.65 1533.5,-565.49 1529.67,-569.32 1525.83,-569.32"/>
<text text-anchor="middle" x="1463.5" y="-554.12" font-family="Arial" font-size="14.00" fill="#c6c5fe">../utils/typeGuards.ts</text>
</g>
<!-- ../utils/typeGuards.ts&#45;&gt;../types/cia.ts -->
<g id="edge19" class="edge">
<title>../utils/typeGuards.ts&#45;&gt;../types/cia.ts</title>
<path fill="none" stroke="#757575" d="M1493.5,-546.22C1531.67,-530.95 1598.89,-504.06 1641.21,-487.13"/>
<polygon fill="#757575" stroke="#757575" points="1642.64,-490.33 1650.62,-483.37 1640.04,-483.83 1642.64,-490.33"/>
</g>
<!-- ../utils/widgetRegistry.tsx -->
<g id="node15" class="node">
<title>../utils/widgetRegistry.tsx</title>
<path fill="none" stroke="#c6c5fe" d="M422.33,-894.32C422.33,-894.32 273.67,-894.32 273.67,-894.32 269.83,-894.32 266,-890.49 266,-886.65 266,-886.65 266,-878.99 266,-878.99 266,-875.15 269.83,-871.32 273.67,-871.32 273.67,-871.32 422.33,-871.32 422.33,-871.32 426.17,-871.32 430,-875.15 430,-878.99 430,-878.99 430,-886.65 430,-886.65 430,-890.49 426.17,-894.32 422.33,-894.32"/>
<text text-anchor="middle" x="348" y="-879.12" font-family="Arial" font-size="14.00" fill="#c6c5fe">../utils/widgetRegistry.tsx</text>
</g>
<!-- ../utils/widgetRegistry.tsx&#45;&gt;../constants/coreConstants.ts -->
<g id="edge20" class="edge">
<title>../utils/widgetRegistry.tsx&#45;&gt;../constants/coreConstants.ts</title>
<path fill="none" stroke="#757575" d="M356.09,-871.28C378.79,-833.92 450.58,-712.39 492,-603.82 514.59,-544.6 484.9,-512.29 528,-465.82 627.69,-358.34 696.22,-387.43 840,-358.82 933.11,-340.29 1041.18,-334.94 1118.91,-333.84"/>
<polygon fill="#757575" stroke="#757575" points="1119.24,-337.34 1129.2,-333.72 1119.15,-330.34 1119.24,-337.34"/>
</g>
<!-- common/index.ts -->
<g id="node16" class="node">
<title>common/index.ts</title>
<path fill="none" stroke="#c6c5fe" d="M718.33,-813.32C718.33,-813.32 613.67,-813.32 613.67,-813.32 609.83,-813.32 606,-809.49 606,-805.65 606,-805.65 606,-797.99 606,-797.99 606,-794.15 609.83,-790.32 613.67,-790.32 613.67,-790.32 718.33,-790.32 718.33,-790.32 722.17,-790.32 726,-794.15 726,-797.99 726,-797.99 726,-805.65 726,-805.65 726,-809.49 722.17,-813.32 718.33,-813.32"/>
<text text-anchor="middle" x="666" y="-798.12" font-family="Arial" font-size="14.00" fill="#c6c5fe">common/index.ts</text>
</g>
<!-- ../utils/widgetRegistry.tsx&#45;&gt;common/index.ts -->
<g id="edge21" class="edge">
<title>../utils/widgetRegistry.tsx&#45;&gt;common/index.ts</title>
<path fill="none" stroke="#757575" d="M377.66,-871.22C412.61,-857.51 473.74,-834.91 528,-821.82 549.79,-816.56 573.87,-812.48 595.7,-809.42"/>
<polygon fill="#757575" stroke="#757575" points="596.44,-812.85 605.88,-808.04 595.5,-805.91 596.44,-812.85"/>
</g>
<!-- widgets/BusinessImpactAnalysisWidget.tsx -->
<g id="node17" class="node">
<title>widgets/BusinessImpactAnalysisWidget.tsx</title>
<path fill="none" stroke="#c6c5fe" d="M796.33,-498.32C796.33,-498.32 535.67,-498.32 535.67,-498.32 531.83,-498.32 528,-494.49 528,-490.65 528,-490.65 528,-482.99 528,-482.99 528,-479.15 531.83,-475.32 535.67,-475.32 535.67,-475.32 796.33,-475.32 796.33,-475.32 800.17,-475.32 804,-479.15 804,-482.99 804,-482.99 804,-490.65 804,-490.65 804,-494.49 800.17,-498.32 796.33,-498.32"/>
<text text-anchor="middle" x="666" y="-483.12" font-family="Arial" font-size="14.00" fill="#c6c5fe">widgets/BusinessImpactAnalysisWidget.tsx</text>
</g>
<!-- ../utils/widgetRegistry.tsx&#45;&gt;widgets/BusinessImpactAnalysisWidget.tsx -->
<g id="edge22" class="edge">
<title>../utils/widgetRegistry.tsx&#45;&gt;widgets/BusinessImpactAnalysisWidget.tsx</title>
<path fill="none" stroke="#757575" d="M354.47,-871.04C378.71,-819.24 477.38,-612.04 528,-561.82 555.15,-534.88 593.97,-514.86 623.36,-502.31"/>
<polygon fill="#757575" stroke="#757575" points="625.04,-505.4 632.94,-498.34 622.36,-498.94 625.04,-505.4"/>
</g>
<!-- widgets/ComplianceStatusWidget.tsx -->
<g id="node18" class="node">
<title>widgets/ComplianceStatusWidget.tsx</title>
<path fill="none" stroke="#c6c5fe" d="M1072.33,-1325.32C1072.33,-1325.32 847.67,-1325.32 847.67,-1325.32 843.83,-1325.32 840,-1321.49 840,-1317.65 840,-1317.65 840,-1309.99 840,-1309.99 840,-1306.15 843.83,-1302.32 847.67,-1302.32 847.67,-1302.32 1072.33,-1302.32 1072.33,-1302.32 1076.17,-1302.32 1080,-1306.15 1080,-1309.99 1080,-1309.99 1080,-1317.65 1080,-1317.65 1080,-1321.49 1076.17,-1325.32 1072.33,-1325.32"/>
<text text-anchor="middle" x="960" y="-1310.12" font-family="Arial" font-size="14.00" fill="#c6c5fe">widgets/ComplianceStatusWidget.tsx</text>
</g>
<!-- ../utils/widgetRegistry.tsx&#45;&gt;widgets/ComplianceStatusWidget.tsx -->
<g id="edge23" class="edge">
<title>../utils/widgetRegistry.tsx&#45;&gt;widgets/ComplianceStatusWidget.tsx</title>
<path fill="none" stroke="#757575" d="M362.59,-894.46C392.06,-919.52 464.3,-980.14 528,-1026.82 676.16,-1135.4 862.38,-1253.48 931.52,-1296.73"/>
<polygon fill="#757575" stroke="#757575" points="929.77,-1299.77 940.11,-1302.1 933.48,-1293.83 929.77,-1299.77"/>
</g>
<!-- widgets/CostEstimationWidget.tsx -->
<g id="node19" class="node">
<title>widgets/CostEstimationWidget.tsx</title>
<path fill="none" stroke="#c6c5fe" d="M768.83,-1017.32C768.83,-1017.32 563.17,-1017.32 563.17,-1017.32 559.33,-1017.32 555.5,-1013.49 555.5,-1009.65 555.5,-1009.65 555.5,-1001.99 555.5,-1001.99 555.5,-998.15 559.33,-994.32 563.17,-994.32 563.17,-994.32 768.83,-994.32 768.83,-994.32 772.67,-994.32 776.5,-998.15 776.5,-1001.99 776.5,-1001.99 776.5,-1009.65 776.5,-1009.65 776.5,-1013.49 772.67,-1017.32 768.83,-1017.32"/>
<text text-anchor="middle" x="666" y="-1002.12" font-family="Arial" font-size="14.00" fill="#c6c5fe">widgets/CostEstimationWidget.tsx</text>
</g>
<!-- ../utils/widgetRegistry.tsx&#45;&gt;widgets/CostEstimationWidget.tsx -->
<g id="edge24" class="edge">
<title>../utils/widgetRegistry.tsx&#45;&gt;widgets/CostEstimationWidget.tsx</title>
<path fill="none" stroke="#757575" d="M378.73,-894.39C436.01,-916.69 561.68,-965.6 625.76,-990.54"/>
<polygon fill="#757575" stroke="#757575" points="624.53,-993.82 635.12,-994.19 627.07,-987.3 624.53,-993.82"/>
</g>
<!-- widgets/SecuritySummaryWidget.tsx -->
<g id="node20" class="node">
<title>widgets/SecuritySummaryWidget.tsx</title>
<path fill="none" stroke="#c6c5fe" d="M777.33,-854.32C777.33,-854.32 554.67,-854.32 554.67,-854.32 550.83,-854.32 547,-850.49 547,-846.65 547,-846.65 547,-838.99 547,-838.99 547,-835.15 550.83,-831.32 554.67,-831.32 554.67,-831.32 777.33,-831.32 777.33,-831.32 781.17,-831.32 785,-835.15 785,-838.99 785,-838.99 785,-846.65 785,-846.65 785,-850.49 781.17,-854.32 777.33,-854.32"/>
<text text-anchor="middle" x="666" y="-839.12" font-family="Arial" font-size="14.00" fill="#c6c5fe">widgets/SecuritySummaryWidget.tsx</text>
</g>
<!-- ../utils/widgetRegistry.tsx&#45;&gt;widgets/SecuritySummaryWidget.tsx -->
<g id="edge25" class="edge">
<title>../utils/widgetRegistry.tsx&#45;&gt;widgets/SecuritySummaryWidget.tsx</title>
<path fill="none" stroke="#757575" d="M430.38,-872.52C471.18,-867.35 520.98,-861.05 564.18,-855.58"/>
<polygon fill="#757575" stroke="#757575" points="564.67,-859.05 574.15,-854.32 563.79,-852.1 564.67,-859.05"/>
</g>
<!-- widgets/ValueCreationWidget.tsx -->
<g id="node21" class="node">
<title>widgets/ValueCreationWidget.tsx</title>
<path fill="none" stroke="#c6c5fe" d="M765.83,-934.32C765.83,-934.32 566.17,-934.32 566.17,-934.32 562.33,-934.32 558.5,-930.49 558.5,-926.65 558.5,-926.65 558.5,-918.99 558.5,-918.99 558.5,-915.15 562.33,-911.32 566.17,-911.32 566.17,-911.32 765.83,-911.32 765.83,-911.32 769.67,-911.32 773.5,-915.15 773.5,-918.99 773.5,-918.99 773.5,-926.65 773.5,-926.65 773.5,-930.49 769.67,-934.32 765.83,-934.32"/>
<text text-anchor="middle" x="666" y="-919.12" font-family="Arial" font-size="14.00" fill="#c6c5fe">widgets/ValueCreationWidget.tsx</text>
</g>
<!-- ../utils/widgetRegistry.tsx&#45;&gt;widgets/ValueCreationWidget.tsx -->
<g id="edge26" class="edge">
<title>../utils/widgetRegistry.tsx&#45;&gt;widgets/ValueCreationWidget.tsx</title>
<path fill="none" stroke="#757575" d="M430.38,-893.12C471.18,-898.28 520.98,-904.59 564.18,-910.06"/>
<polygon fill="#757575" stroke="#757575" points="563.79,-913.53 574.15,-911.32 564.67,-906.59 563.79,-913.53"/>
</g>
<!-- common/KeyValuePair.tsx -->
<g id="node26" class="node">
<title>common/KeyValuePair.tsx</title>
<path fill="none" stroke="#c6c5fe" d="M1039.83,-1017.32C1039.83,-1017.32 880.17,-1017.32 880.17,-1017.32 876.33,-1017.32 872.5,-1013.49 872.5,-1009.65 872.5,-1009.65 872.5,-1001.99 872.5,-1001.99 872.5,-998.15 876.33,-994.32 880.17,-994.32 880.17,-994.32 1039.83,-994.32 1039.83,-994.32 1043.67,-994.32 1047.5,-998.15 1047.5,-1001.99 1047.5,-1001.99 1047.5,-1009.65 1047.5,-1009.65 1047.5,-1013.49 1043.67,-1017.32 1039.83,-1017.32"/>
<text text-anchor="middle" x="960" y="-1002.12" font-family="Arial" font-size="14.00" fill="#c6c5fe">common/KeyValuePair.tsx</text>
</g>
<!-- common/index.ts&#45;&gt;common/KeyValuePair.tsx -->
<g id="edge45" class="edge">
<title>common/index.ts&#45;&gt;common/KeyValuePair.tsx</title>
<path fill="none" stroke="#757575" d="M726.11,-796.15C753.03,-796.83 783.42,-802.65 804,-821.82 858.61,-872.68 785.94,-934.38 840,-985.82 846.56,-992.06 854.3,-996.77 862.63,-1000.28"/>
<polygon fill="#757575" stroke="#757575" points="861.66,-1003.65 872.26,-1003.75 864.04,-997.06 861.66,-1003.65"/>
</g>
<!-- common/MetricsCard.tsx -->
<g id="node28" class="node">
<title>common/MetricsCard.tsx</title>
<path fill="none" stroke="#c6c5fe" d="M1036.33,-773.32C1036.33,-773.32 883.67,-773.32 883.67,-773.32 879.83,-773.32 876,-769.49 876,-765.65 876,-765.65 876,-757.99 876,-757.99 876,-754.15 879.83,-750.32 883.67,-750.32 883.67,-750.32 1036.33,-750.32 1036.33,-750.32 1040.17,-750.32 1044,-754.15 1044,-757.99 1044,-757.99 1044,-765.65 1044,-765.65 1044,-769.49 1040.17,-773.32 1036.33,-773.32"/>
<text text-anchor="middle" x="960" y="-758.12" font-family="Arial" font-size="14.00" fill="#c6c5fe">common/MetricsCard.tsx</text>
</g>
<!-- common/index.ts&#45;&gt;common/MetricsCard.tsx -->
<g id="edge46" class="edge">
<title>common/index.ts&#45;&gt;common/MetricsCard.tsx</title>
<path fill="none" stroke="#757575" d="M726.09,-793.72C766.22,-788.23 820.13,-780.84 865.98,-774.56"/>
<polygon fill="#757575" stroke="#757575" points="866.5,-778.02 875.93,-773.2 865.55,-771.09 866.5,-778.02"/>
</g>
<!-- common/StatusBadge.tsx -->
<g id="node29" class="node">
<title>common/StatusBadge.tsx</title>
<path fill="none" stroke="#c6c5fe" d="M1038.33,-614.32C1038.33,-614.32 881.67,-614.32 881.67,-614.32 877.83,-614.32 874,-610.49 874,-606.65 874,-606.65 874,-598.99 874,-598.99 874,-595.15 877.83,-591.32 881.67,-591.32 881.67,-591.32 1038.33,-591.32 1038.33,-591.32 1042.17,-591.32 1046,-595.15 1046,-598.99 1046,-598.99 1046,-606.65 1046,-606.65 1046,-610.49 1042.17,-614.32 1038.33,-614.32"/>
<text text-anchor="middle" x="960" y="-599.12" font-family="Arial" font-size="14.00" fill="#c6c5fe">common/StatusBadge.tsx</text>
</g>
<!-- common/index.ts&#45;&gt;common/StatusBadge.tsx -->
<g id="edge47" class="edge">
<title>common/index.ts&#45;&gt;common/StatusBadge.tsx</title>
<path fill="none" stroke="#757575" d="M688.96,-790.05C718.32,-773.43 770.51,-740.61 804,-700.82 827.04,-673.45 811.76,-650.79 840,-628.82 847.29,-623.15 855.56,-618.65 864.27,-615.1"/>
<polygon fill="#757575" stroke="#757575" points="865.66,-618.32 873.85,-611.6 863.26,-611.74 865.66,-618.32"/>
</g>
<!-- common/ValueDisplay.tsx -->
<g id="node30" class="node">
<title>common/ValueDisplay.tsx</title>
<path fill="none" stroke="#c6c5fe" d="M1038.33,-814.32C1038.33,-814.32 881.67,-814.32 881.67,-814.32 877.83,-814.32 874,-810.49 874,-806.65 874,-806.65 874,-798.99 874,-798.99 874,-795.15 877.83,-791.32 881.67,-791.32 881.67,-791.32 1038.33,-791.32 1038.33,-791.32 1042.17,-791.32 1046,-795.15 1046,-798.99 1046,-798.99 1046,-806.65 1046,-806.65 1046,-810.49 1042.17,-814.32 1038.33,-814.32"/>
<text text-anchor="middle" x="960" y="-799.12" font-family="Arial" font-size="14.00" fill="#c6c5fe">common/ValueDisplay.tsx</text>
</g>
<!-- common/index.ts&#45;&gt;common/ValueDisplay.tsx -->
<g id="edge48" class="edge">
<title>common/index.ts&#45;&gt;common/ValueDisplay.tsx</title>
<path fill="none" stroke="#757575" d="M726.09,-802.02C765.6,-802.16 818.45,-802.34 863.83,-802.49"/>
<polygon fill="#757575" stroke="#757575" points="863.97,-805.99 873.98,-802.53 864,-798.99 863.97,-805.99"/>
</g>
<!-- common/WidgetContainer.tsx -->
<g id="node31" class="node">
<title>common/WidgetContainer.tsx</title>
<path fill="none" stroke="#c6c5fe" d="M1049.83,-976.32C1049.83,-976.32 870.17,-976.32 870.17,-976.32 866.33,-976.32 862.5,-972.49 862.5,-968.65 862.5,-968.65 862.5,-960.99 862.5,-960.99 862.5,-957.15 866.33,-953.32 870.17,-953.32 870.17,-953.32 1049.83,-953.32 1049.83,-953.32 1053.67,-953.32 1057.5,-957.15 1057.5,-960.99 1057.5,-960.99 1057.5,-968.65 1057.5,-968.65 1057.5,-972.49 1053.67,-976.32 1049.83,-976.32"/>
<text text-anchor="middle" x="960" y="-961.12" font-family="Arial" font-size="14.00" fill="#c6c5fe">common/WidgetContainer.tsx</text>
</g>
<!-- common/index.ts&#45;&gt;common/WidgetContainer.tsx -->
<g id="edge49" class="edge">
<title>common/index.ts&#45;&gt;common/WidgetContainer.tsx</title>
<path fill="none" stroke="#757575" d="M726.22,-796.81C752.85,-797.71 782.96,-803.53 804,-821.82 846.99,-859.18 797.41,-906.99 840,-944.82 844.01,-948.38 848.41,-951.43 853.07,-954.03"/>
<polygon fill="#757575" stroke="#757575" points="851.82,-957.31 862.35,-958.51 854.86,-951.01 851.82,-957.31"/>
</g>
<!-- widgets/BusinessImpactAnalysisWidget.tsx&#45;&gt;../constants/riskConstants.ts -->
<g id="edge52" class="edge">
<title>widgets/BusinessImpactAnalysisWidget.tsx&#45;&gt;../constants/riskConstants.ts</title>
<path fill="none" stroke="#757575" d="M667.49,-475.25C670.59,-417.97 692.56,-163.21 840,-54.82 977.93,46.58 1052.81,-24.82 1224,-24.82 1224,-24.82 1224,-24.82 1464.5,-24.82 1635,-24.82 1812.66,-152.62 1873.53,-200.76"/>
<polygon fill="#757575" stroke="#757575" points="1871.66,-203.75 1881.65,-207.26 1876.04,-198.28 1871.66,-203.75"/>
</g>
<!-- widgets/BusinessImpactAnalysisWidget.tsx&#45;&gt;../constants/uiConstants.ts -->
<g id="edge54" class="edge">
<title>widgets/BusinessImpactAnalysisWidget.tsx&#45;&gt;../constants/uiConstants.ts</title>
<path fill="none" stroke="#757575" d="M691.22,-475.24C724.04,-460.23 784.9,-434.8 840,-424.82 1105.25,-376.77 1425.39,-391.88 1582.67,-403.97"/>
<polygon fill="#757575" stroke="#757575" points="1582.55,-407.47 1592.79,-404.76 1583.1,-400.49 1582.55,-407.47"/>
</g>
<!-- widgets/BusinessImpactAnalysisWidget.tsx&#45;&gt;../types/cia.ts -->
<g id="edge56" class="edge">
<title>widgets/BusinessImpactAnalysisWidget.tsx&#45;&gt;../types/cia.ts</title>
<path fill="none" stroke="#757575" d="M696.1,-475.21C730,-462.36 788.03,-442.46 840,-434.82 991.56,-412.53 1459.44,-451.71 1622.64,-466.51"/>
<polygon fill="#757575" stroke="#757575" points="1622.66,-470.03 1632.94,-467.45 1623.3,-463.05 1622.66,-470.03"/>
</g>
<!-- widgets/BusinessImpactAnalysisWidget.tsx&#45;&gt;../constants/businessConstants.ts -->
<g id="edge50" class="edge">
<title>widgets/BusinessImpactAnalysisWidget.tsx&#45;&gt;../constants/businessConstants.ts</title>
<path fill="none" stroke="#757575" d="M668.74,-475.11C676.96,-424.26 716.8,-221.11 840,-128.82 915.81,-72.03 1023.71,-58.24 1105.84,-57.39"/>
<polygon fill="#757575" stroke="#757575" points="1105.99,-60.89 1115.98,-57.35 1105.96,-53.89 1105.99,-60.89"/>
</g>
<!-- widgets/BusinessImpactAnalysisWidget.tsx&#45;&gt;../types/businessImpact.ts -->
<g id="edge55" class="edge">
<title>widgets/BusinessImpactAnalysisWidget.tsx&#45;&gt;../types/businessImpact.ts</title>
<path fill="none" stroke="#757575" d="M668.97,-475.18C677.91,-426.53 719.57,-238.61 840,-166.82 927.58,-114.6 1224.17,-145.87 1374.13,-165.93"/>
<polygon fill="#757575" stroke="#757575" points="1373.86,-169.42 1384.23,-167.29 1374.79,-162.49 1373.86,-169.42"/>
</g>
<!-- widgets/BusinessImpactAnalysisWidget.tsx&#45;&gt;../constants/index.ts -->
<g id="edge51" class="edge">
<title>widgets/BusinessImpactAnalysisWidget.tsx&#45;&gt;../constants/index.ts</title>
<path fill="none" stroke="#757575" d="M681.31,-475.13C710.3,-451.68 778.48,-397.84 840,-358.82 868.16,-340.96 901.73,-323.2 926.03,-310.94"/>
<polygon fill="#757575" stroke="#757575" points="927.8,-313.97 935.18,-306.36 924.67,-307.71 927.8,-313.97"/>
</g>
<!-- widgets/BusinessImpactAnalysisWidget.tsx&#45;&gt;../constants/testIds.ts -->
<g id="edge53" class="edge">
<title>widgets/BusinessImpactAnalysisWidget.tsx&#45;&gt;../constants/testIds.ts</title>
<path fill="none" stroke="#757575" d="M804.05,-477.03C891.88,-478 1003.37,-493.64 1080,-555.82 1192.32,-646.96 1217.31,-837.59 1222.62,-902.01"/>
<polygon fill="#757575" stroke="#757575" points="1219.15,-902.49 1223.38,-912.2 1226.13,-901.97 1219.15,-902.49"/>
</g>
<!-- widgets/BusinessImpactAnalysisWidget.tsx&#45;&gt;common/KeyValuePair.tsx -->
<g id="edge57" class="edge">
<title>widgets/BusinessImpactAnalysisWidget.tsx&#45;&gt;common/KeyValuePair.tsx</title>
<path fill="none" stroke="#757575" d="M710.16,-498.42C741.72,-509.32 782.62,-528.99 804,-561.82 855.61,-641.05 775.93,-916.28 840,-985.82 846.41,-992.78 854.26,-997.9 862.85,-1001.63"/>
<polygon fill="#757575" stroke="#757575" points="861.83,-1004.98 872.42,-1005.14 864.24,-998.41 861.83,-1004.98"/>
</g>
<!-- widgets/BusinessImpactAnalysisWidget.tsx&#45;&gt;common/MetricsCard.tsx -->
<g id="edge58" class="edge">
<title>widgets/BusinessImpactAnalysisWidget.tsx&#45;&gt;common/MetricsCard.tsx</title>
<path fill="none" stroke="#757575" d="M706.88,-498.34C738.15,-509.48 780.22,-529.49 804,-561.82 852.08,-627.19 781.94,-684.12 840,-740.82 847.45,-748.09 856.49,-753.34 866.21,-757.06"/>
<polygon fill="#757575" stroke="#757575" points="865.12,-760.39 875.72,-760.19 867.31,-753.74 865.12,-760.39"/>
</g>
<!-- widgets/BusinessImpactAnalysisWidget.tsx&#45;&gt;common/StatusBadge.tsx -->
<g id="edge59" class="edge">
<title>widgets/BusinessImpactAnalysisWidget.tsx&#45;&gt;common/StatusBadge.tsx</title>
<path fill="none" stroke="#757575" d="M696.07,-498.37C748.95,-519.37 860.9,-563.85 920.22,-587.41"/>
<polygon fill="#757575" stroke="#757575" points="919.03,-590.71 929.62,-591.15 921.62,-584.2 919.03,-590.71"/>
</g>
<!-- widgets/BusinessImpactAnalysisWidget.tsx&#45;&gt;common/ValueDisplay.tsx -->
<g id="edge60" class="edge">
<title>widgets/BusinessImpactAnalysisWidget.tsx&#45;&gt;common/ValueDisplay.tsx</title>
<path fill="none" stroke="#757575" d="M707.83,-498.34C739.21,-509.39 780.97,-529.29 804,-561.82 861.25,-642.68 770.38,-711.32 840,-781.82 846.89,-788.8 855.24,-793.93 864.27,-797.65"/>
<polygon fill="#757575" stroke="#757575" points="863.31,-801.03 873.91,-801.04 865.64,-794.42 863.31,-801.03"/>
</g>
<!-- widgets/ComplianceStatusWidget.tsx&#45;&gt;../constants/appConstants.ts -->
<g id="edge67" class="edge">
<title>widgets/ComplianceStatusWidget.tsx&#45;&gt;../constants/appConstants.ts</title>
<path fill="none" stroke="#757575" d="M1032.85,-1302.29C1110.08,-1288.08 1235.05,-1259.72 1334,-1211.82 1374.79,-1192.07 1416.84,-1159.98 1441.28,-1139.92"/>
<polygon fill="#757575" stroke="#757575" points="1443.71,-1142.46 1449.16,-1133.37 1439.23,-1137.08 1443.71,-1142.46"/>
</g>
<!-- widgets/ComplianceStatusWidget.tsx&#45;&gt;../constants/testIds.ts -->
<g id="edge68" class="edge">
<title>widgets/ComplianceStatusWidget.tsx&#45;&gt;../constants/testIds.ts</title>
<path fill="none" stroke="#757575" d="M1056.08,-1302.26C1064.74,-1298.57 1072.91,-1293.85 1080,-1287.82 1188.92,-1195.22 1216.07,-1009 1222.29,-945.56"/>
<polygon fill="#757575" stroke="#757575" points="1225.78,-945.79 1223.19,-935.51 1218.81,-945.16 1225.78,-945.79"/>
</g>
<!-- widgets/CostEstimationWidget.tsx&#45;&gt;../constants/appConstants.ts -->
<g id="edge69" class="edge">
<title>widgets/CostEstimationWidget.tsx&#45;&gt;../constants/appConstants.ts</title>
<path fill="none" stroke="#757575" d="M676.27,-1017.56C700.39,-1048.58 765.87,-1135.99 804,-1217.82 826.98,-1267.13 796.24,-1302.5 840,-1334.82 929.26,-1400.75 1239.63,-1320.2 1334,-1261.82 1385.11,-1230.2 1428.54,-1172.7 1449.35,-1142.15"/>
<polygon fill="#757575" stroke="#757575" points="1452.42,-1143.86 1455.06,-1133.6 1446.6,-1139.97 1452.42,-1143.86"/>
</g>
<!-- widgets/CostEstimationWidget.tsx&#45;&gt;../constants/testIds.ts -->
<g id="edge70" class="edge">
<title>widgets/CostEstimationWidget.tsx&#45;&gt;../constants/testIds.ts</title>
<path fill="none" stroke="#757575" d="M693.7,-1017.44C761.05,-1044.98 942.29,-1108.09 1080,-1054.82 1137.95,-1032.4 1186.94,-974.62 1209.94,-943.83"/>
<polygon fill="#757575" stroke="#757575" points="1212.91,-945.7 1215.98,-935.56 1207.26,-941.57 1212.91,-945.7"/>
</g>
<!-- widgets/CostEstimationWidget.tsx&#45;&gt;common/KeyValuePair.tsx -->
<g id="edge71" class="edge">
<title>widgets/CostEstimationWidget.tsx&#45;&gt;common/KeyValuePair.tsx</title>
<path fill="none" stroke="#757575" d="M776.56,-1005.82C804.54,-1005.82 834.43,-1005.82 861.75,-1005.82"/>
<polygon fill="#757575" stroke="#757575" points="862.08,-1009.32 872.08,-1005.82 862.08,-1002.32 862.08,-1009.32"/>
</g>
<!-- widgets/CostEstimationWidget.tsx&#45;&gt;common/ValueDisplay.tsx -->
<g id="edge72" class="edge">
<title>widgets/CostEstimationWidget.tsx&#45;&gt;common/ValueDisplay.tsx</title>
<path fill="none" stroke="#757575" d="M712.95,-994.26C742.2,-984.87 779.13,-968.97 804,-943.82 831.98,-915.52 812.52,-890.61 840,-861.82 859.17,-841.73 886.63,-827.49 910.35,-818.04"/>
<polygon fill="#757575" stroke="#757575" points="911.8,-821.23 919.9,-814.4 909.31,-814.68 911.8,-821.23"/>
</g>
<!-- widgets/SecuritySummaryWidget.tsx&#45;&gt;../constants/appConstants.ts -->
<g id="edge76" class="edge">
<title>widgets/SecuritySummaryWidget.tsx&#45;&gt;../constants/appConstants.ts</title>
<path fill="none" stroke="#757575" d="M721.44,-854.38C749.7,-863.01 782.69,-877.63 804,-901.82 842.22,-945.2 796.29,-988.98 840,-1026.82 880.7,-1062.05 1026.76,-1051.84 1080,-1059.82 1185.54,-1075.63 1307.15,-1095.65 1384.39,-1108.59"/>
<polygon fill="#757575" stroke="#757575" points="1384.08,-1112.09 1394.52,-1110.29 1385.24,-1105.19 1384.08,-1112.09"/>
</g>
<!-- widgets/SecuritySummaryWidget.tsx&#45;&gt;../types/businessImpact.ts -->
<g id="edge79" class="edge">
<title>widgets/SecuritySummaryWidget.tsx&#45;&gt;../types/businessImpact.ts</title>
<path fill="none" stroke="#757575" d="M785.23,-836.27C792.18,-832.51 798.55,-827.76 804,-821.82 886.48,-731.87 763.22,-368.68 840,-273.82 904.49,-194.15 1208.47,-180.22 1366.51,-178.47"/>
<polygon fill="#757575" stroke="#757575" points="1366.74,-181.97 1376.71,-178.37 1366.68,-174.97 1366.74,-181.97"/>
</g>
<!-- widgets/SecuritySummaryWidget.tsx&#45;&gt;../constants/testIds.ts -->
<g id="edge77" class="edge">
<title>widgets/SecuritySummaryWidget.tsx&#45;&gt;../constants/testIds.ts</title>
<path fill="none" stroke="#757575" d="M785.12,-837.09C868.55,-835.73 982.42,-839.36 1080,-861.82 1121.47,-871.36 1165.99,-892.37 1194.37,-907.28"/>
<polygon fill="#757575" stroke="#757575" points="1192.88,-910.45 1203.35,-912.08 1196.18,-904.28 1192.88,-910.45"/>
</g>
<!-- widgets/SecuritySummaryWidget.tsx&#45;&gt;../hooks/useCIAOptions.ts -->
<g id="edge78" class="edge">
<title>widgets/SecuritySummaryWidget.tsx&#45;&gt;../hooks/useCIAOptions.ts</title>
<path fill="none" stroke="#757575" d="M728.66,-854.36C756.17,-862.78 786.31,-877.22 804,-901.82 860.38,-980.2 802.16,-1245.99 840,-1334.82 861.06,-1384.26 907.55,-1428.21 935.78,-1451.73"/>
<polygon fill="#757575" stroke="#757575" points="933.61,-1454.47 943.57,-1458.08 938.03,-1449.05 933.61,-1454.47"/>
</g>
<!-- widgets/SecuritySummaryWidget.tsx&#45;&gt;../types/widgets.ts -->
<g id="edge80" class="edge">
<title>widgets/SecuritySummaryWidget.tsx&#45;&gt;../types/widgets.ts</title>
<path fill="none" stroke="#757575" d="M751.07,-854.33C794.34,-860.26 846.52,-867.41 887.78,-873.06"/>
<polygon fill="#757575" stroke="#757575" points="887.37,-876.54 897.75,-874.43 888.32,-869.6 887.37,-876.54"/>
</g>
<!-- widgets/SecuritySummaryWidget.tsx&#45;&gt;common/KeyValuePair.tsx -->
<g id="edge81" class="edge">
<title>widgets/SecuritySummaryWidget.tsx&#45;&gt;common/KeyValuePair.tsx</title>
<path fill="none" stroke="#757575" d="M716.94,-854.41C745.53,-863.26 780.31,-878.08 804,-901.82 832.7,-930.56 808.07,-960.72 840,-985.82 846.81,-991.17 854.52,-995.31 862.66,-998.5"/>
<polygon fill="#757575" stroke="#757575" points="861.8,-1001.91 872.39,-1001.82 864.06,-995.28 861.8,-1001.91"/>
</g>
<!-- widgets/SecuritySummaryWidget.tsx&#45;&gt;common/MetricsCard.tsx -->
<g id="edge82" class="edge">
<title>widgets/SecuritySummaryWidget.tsx&#45;&gt;common/MetricsCard.tsx</title>
<path fill="none" stroke="#757575" d="M782.2,-831.24C789.78,-828.64 797.12,-825.53 804,-821.82 825.05,-810.46 819.04,-793.33 840,-781.82 848.09,-777.38 856.92,-773.87 866,-771.11"/>
<polygon fill="#757575" stroke="#757575" points="867.2,-774.41 875.92,-768.4 865.35,-767.66 867.2,-774.41"/>
</g>
<!-- widgets/SecuritySummaryWidget.tsx&#45;&gt;common/StatusBadge.tsx -->
<g id="edge83" class="edge">
<title>widgets/SecuritySummaryWidget.tsx&#45;&gt;common/StatusBadge.tsx</title>
<path fill="none" stroke="#757575" d="M785.09,-835.19C791.98,-831.66 798.38,-827.26 804,-821.82 866.69,-761.12 779.25,-691.46 840,-628.82 846.96,-621.65 855.4,-616.23 864.54,-612.18"/>
<polygon fill="#757575" stroke="#757575" points="865.83,-615.44 873.89,-608.56 863.3,-608.91 865.83,-615.44"/>
</g>
<!-- widgets/SecuritySummaryWidget.tsx&#45;&gt;common/ValueDisplay.tsx -->
<g id="edge84" class="edge">
<title>widgets/SecuritySummaryWidget.tsx&#45;&gt;common/ValueDisplay.tsx</title>
<path fill="none" stroke="#757575" d="M751.07,-831.3C786.64,-826.43 828.24,-820.73 864.84,-815.72"/>
<polygon fill="#757575" stroke="#757575" points="865.59,-819.15 875.02,-814.32 864.64,-812.21 865.59,-819.15"/>
</g>
<!-- widgets/ValueCreationWidget.tsx&#45;&gt;../constants/appConstants.ts -->
<g id="edge91" class="edge">
<title>widgets/ValueCreationWidget.tsx&#45;&gt;../constants/appConstants.ts</title>
<path fill="none" stroke="#757575" d="M709.54,-934.34C738.96,-944.08 777.45,-960.56 804,-985.82 829.06,-1009.66 811.42,-1035.33 840,-1054.82 1007.92,-1169.34 1262.66,-1152.31 1387.79,-1134.8"/>
<polygon fill="#757575" stroke="#757575" points="1388.64,-1138.22 1398.03,-1133.33 1387.64,-1131.29 1388.64,-1138.22"/>
</g>
<!-- widgets/ValueCreationWidget.tsx&#45;&gt;../constants/testIds.ts -->
<g id="edge92" class="edge">
<title>widgets/ValueCreationWidget.tsx&#45;&gt;../constants/testIds.ts</title>
<path fill="none" stroke="#757575" d="M702.4,-934.42C731.45,-944.99 772.73,-962.5 804,-985.82 823.44,-1000.31 817.91,-1016.82 840,-1026.82 937.17,-1070.81 978.43,-1059.4 1080,-1026.82 1131.72,-1010.23 1180.65,-967.46 1206,-942.56"/>
<polygon fill="#757575" stroke="#757575" points="1208.51,-945.01 1213.09,-935.46 1203.55,-940.07 1208.51,-945.01"/>
</g>
<!-- widgets/ValueCreationWidget.tsx&#45;&gt;../types/widgets.ts -->
<g id="edge93" class="edge">
<title>widgets/ValueCreationWidget.tsx&#45;&gt;../types/widgets.ts</title>
<path fill="none" stroke="#757575" d="M751.07,-911.3C794.34,-905.38 846.52,-898.23 887.78,-892.58"/>
<polygon fill="#757575" stroke="#757575" points="888.32,-896.03 897.75,-891.21 887.37,-889.1 888.32,-896.03"/>
</g>
<!-- widgets/ValueCreationWidget.tsx&#45;&gt;../utils/typeGuards.ts -->
<g id="edge94" class="edge">
<title>widgets/ValueCreationWidget.tsx&#45;&gt;../utils/typeGuards.ts</title>
<path fill="none" stroke="#757575" d="M722.41,-911.26C750.78,-902.55 783.56,-887.7 804,-862.82 851.09,-805.49 787.72,-752.46 840,-699.82 878.34,-661.22 1223.95,-598.31 1383.02,-571.08"/>
<polygon fill="#757575" stroke="#757575" points="1383.95,-574.47 1393.22,-569.34 1382.77,-567.57 1383.95,-574.47"/>
</g>
<!-- widgets/ValueCreationWidget.tsx&#45;&gt;common/KeyValuePair.tsx -->
<g id="edge95" class="edge">
<title>widgets/ValueCreationWidget.tsx&#45;&gt;common/KeyValuePair.tsx</title>
<path fill="none" stroke="#757575" d="M694.07,-934.43C727.71,-948.45 787.15,-971.88 840,-985.82 849.1,-988.22 858.66,-990.39 868.25,-992.34"/>
<polygon fill="#757575" stroke="#757575" points="867.75,-995.81 878.24,-994.3 869.1,-988.94 867.75,-995.81"/>
</g>
<!-- widgets/ValueCreationWidget.tsx&#45;&gt;common/ValueDisplay.tsx -->
<g id="edge96" class="edge">
<title>widgets/ValueCreationWidget.tsx&#45;&gt;common/ValueDisplay.tsx</title>
<path fill="none" stroke="#757575" d="M695,-911.31C747.73,-889.64 861.81,-842.76 921.26,-818.33"/>
<polygon fill="#757575" stroke="#757575" points="922.74,-821.5 930.66,-814.47 920.08,-815.03 922.74,-821.5"/>
</g>
<!-- Dashboard.tsx -->
<g id="node22" class="node">
<title>Dashboard.tsx</title>
<path fill="none" stroke="#c6c5fe" d="M128.33,-1461.32C128.33,-1461.32 39.67,-1461.32 39.67,-1461.32 35.83,-1461.32 32,-1457.49 32,-1453.65 32,-1453.65 32,-1445.99 32,-1445.99 32,-1442.15 35.83,-1438.32 39.67,-1438.32 39.67,-1438.32 128.33,-1438.32 128.33,-1438.32 132.17,-1438.32 136,-1442.15 136,-1445.99 136,-1445.99 136,-1453.65 136,-1453.65 136,-1457.49 132.17,-1461.32 128.33,-1461.32"/>
<text text-anchor="middle" x="84" y="-1446.12" font-family="Arial" font-size="14.00" fill="#c6c5fe">Dashboard.tsx</text>
</g>
<!-- Dashboard.tsx&#45;&gt;../constants/appConstants.ts -->
<g id="edge27" class="edge">
<title>Dashboard.tsx&#45;&gt;../constants/appConstants.ts</title>
<path fill="none" stroke="#757575" d="M136.09,-1459.52C146.89,-1462.45 158.03,-1466.17 168,-1470.82 185.88,-1479.17 185.42,-1490.17 204,-1496.82 339.84,-1545.42 383.79,-1512.37 528,-1516.82 886.24,-1527.86 1050.23,-1709.75 1334,-1490.82 1447.49,-1403.26 1461.18,-1208.83 1462.5,-1143.62"/>
<polygon fill="#757575" stroke="#757575" points="1466,-1143.36 1462.62,-1133.32 1459,-1143.28 1466,-1143.36"/>
</g>
<!-- Dashboard.tsx&#45;&gt;../constants/testIds.ts -->
<g id="edge28" class="edge">
<title>Dashboard.tsx&#45;&gt;../constants/testIds.ts</title>
<path fill="none" stroke="#757575" d="M88.6,-1438.01C99.64,-1403.94 136.44,-1304.91 204,-1257.82 529.99,-1030.58 733.55,-1273.46 1080,-1078.82 1140.01,-1045.11 1189.32,-977.7 1211.44,-943.99"/>
<polygon fill="#757575" stroke="#757575" points="1214.48,-945.74 1216.95,-935.43 1208.59,-941.95 1214.48,-945.74"/>
</g>
<!-- Dashboard.tsx&#45;&gt;../hooks/useCIAOptions.ts -->
<g id="edge29" class="edge">
<title>Dashboard.tsx&#45;&gt;../hooks/useCIAOptions.ts</title>
<path fill="none" stroke="#757575" d="M136.09,-1450.99C277.9,-1454.23 678.13,-1463.39 863.09,-1467.62"/>
<polygon fill="#757575" stroke="#757575" points="863.27,-1471.13 873.34,-1467.86 863.43,-1464.13 863.27,-1471.13"/>
</g>
<!-- Dashboard.tsx&#45;&gt;../styles/gridStyles.ts -->
<g id="edge30" class="edge">
<title>Dashboard.tsx&#45;&gt;../styles/gridStyles.ts</title>
<path fill="none" stroke="#757575" d="M136.14,-1445.92C173.5,-1443.06 224.88,-1439.14 267.56,-1435.88"/>
<polygon fill="#757575" stroke="#757575" points="267.95,-1439.36 277.65,-1435.11 267.41,-1432.38 267.95,-1439.36"/>
</g>
<!-- Dashboard.tsx&#45;&gt;../utils/widgetRegistry.tsx -->
<g id="edge31" class="edge">
<title>Dashboard.tsx&#45;&gt;../utils/widgetRegistry.tsx</title>
<path fill="none" stroke="#757575" d="M88.93,-1438.29C102.91,-1397.57 152.23,-1257.07 204,-1145.82 247.32,-1052.73 308.94,-946.69 334.82,-903.13"/>
<polygon fill="#757575" stroke="#757575" points="337.94,-904.73 340.05,-894.35 331.93,-901.14 337.94,-904.73"/>
</g>
<!-- common/WidgetHeader.tsx -->
<g id="node23" class="node">
<title>common/WidgetHeader.tsx</title>
<path fill="none" stroke="#c6c5fe" d="M1307.83,-1481.32C1307.83,-1481.32 1142.17,-1481.32 1142.17,-1481.32 1138.33,-1481.32 1134.5,-1477.49 1134.5,-1473.65 1134.5,-1473.65 1134.5,-1465.99 1134.5,-1465.99 1134.5,-1462.15 1138.33,-1458.32 1142.17,-1458.32 1142.17,-1458.32 1307.83,-1458.32 1307.83,-1458.32 1311.67,-1458.32 1315.5,-1462.15 1315.5,-1465.99 1315.5,-1465.99 1315.5,-1473.65 1315.5,-1473.65 1315.5,-1477.49 1311.67,-1481.32 1307.83,-1481.32"/>
<text text-anchor="middle" x="1225" y="-1466.12" font-family="Arial" font-size="14.00" fill="#c6c5fe">common/WidgetHeader.tsx</text>
</g>
<!-- Dashboard.tsx&#45;&gt;common/WidgetHeader.tsx -->
<g id="edge32" class="edge">
<title>Dashboard.tsx&#45;&gt;common/WidgetHeader.tsx</title>
<path fill="none" stroke="#757575" d="M136.05,-1459.94C157.02,-1463.69 181.59,-1467.58 204,-1469.82 591.51,-1508.61 691.58,-1518.99 1080,-1490.82 1102.51,-1489.19 1126.84,-1486.14 1148.98,-1482.86"/>
<polygon fill="#757575" stroke="#757575" points="1149.62,-1486.3 1158.99,-1481.34 1148.57,-1479.38 1149.62,-1486.3"/>
</g>
<!-- common/WidgetHeader.tsx&#45;&gt;../constants/appConstants.ts -->
<g id="edge44" class="edge">
<title>common/WidgetHeader.tsx&#45;&gt;../constants/appConstants.ts</title>
<path fill="none" stroke="#757575" d="M1310.17,-1458.22C1318.83,-1454.58 1327,-1449.88 1334,-1443.82 1428.27,-1362.18 1454.12,-1201.78 1460.55,-1143.57"/>
<polygon fill="#757575" stroke="#757575" points="1464.06,-1143.65 1461.59,-1133.35 1457.09,-1142.94 1464.06,-1143.65"/>
</g>
<!-- RadarChart.tsx -->
<g id="node24" class="node">
<title>RadarChart.tsx</title>
<path fill="none" stroke="#c6c5fe" d="M1005.83,-732.32C1005.83,-732.32 914.17,-732.32 914.17,-732.32 910.33,-732.32 906.5,-728.49 906.5,-724.65 906.5,-724.65 906.5,-716.99 906.5,-716.99 906.5,-713.15 910.33,-709.32 914.17,-709.32 914.17,-709.32 1005.83,-709.32 1005.83,-709.32 1009.67,-709.32 1013.5,-713.15 1013.5,-716.99 1013.5,-716.99 1013.5,-724.65 1013.5,-724.65 1013.5,-728.49 1009.67,-732.32 1005.83,-732.32"/>
<text text-anchor="middle" x="960" y="-717.12" font-family="Arial" font-size="14.00" fill="#c6c5fe">RadarChart.tsx</text>
</g>
<!-- RadarChart.tsx&#45;&gt;../constants/testIds.ts -->
<g id="edge33" class="edge">
<title>RadarChart.tsx&#45;&gt;../constants/testIds.ts</title>
<path fill="none" stroke="#757575" d="M1013.63,-721.44C1035.42,-723.72 1060.18,-729.06 1080,-740.82 1146.85,-780.47 1194.51,-863.78 1214.1,-902.81"/>
<polygon fill="#757575" stroke="#757575" points="1211.03,-904.5 1218.57,-911.94 1217.31,-901.42 1211.03,-904.5"/>
</g>
<!-- SecurityLevelSelector.tsx -->
<g id="node25" class="node">
<title>SecurityLevelSelector.tsx</title>
<path fill="none" stroke="#c6c5fe" d="M741.83,-1249.32C741.83,-1249.32 590.17,-1249.32 590.17,-1249.32 586.33,-1249.32 582.5,-1245.49 582.5,-1241.65 582.5,-1241.65 582.5,-1233.99 582.5,-1233.99 582.5,-1230.15 586.33,-1226.32 590.17,-1226.32 590.17,-1226.32 741.83,-1226.32 741.83,-1226.32 745.67,-1226.32 749.5,-1230.15 749.5,-1233.99 749.5,-1233.99 749.5,-1241.65 749.5,-1241.65 749.5,-1245.49 745.67,-1249.32 741.83,-1249.32"/>
<text text-anchor="middle" x="666" y="-1234.12" font-family="Arial" font-size="14.00" fill="#c6c5fe">SecurityLevelSelector.tsx</text>
</g>
<!-- SecurityLevelSelector.tsx&#45;&gt;../constants/appConstants.ts -->
<g id="edge34" class="edge">
<title>SecurityLevelSelector.tsx&#45;&gt;../constants/appConstants.ts</title>
<path fill="none" stroke="#757575" d="M677.24,-1249.52C701.92,-1276.74 768.02,-1343.79 840,-1367.82 944.13,-1402.58 1240.11,-1424.7 1334,-1367.82 1417.14,-1317.45 1449.04,-1193.69 1458.83,-1143.5"/>
<polygon fill="#757575" stroke="#757575" points="1462.32,-1143.9 1460.69,-1133.43 1455.43,-1142.64 1462.32,-1143.9"/>
</g>
<!-- SecurityLevelSelector.tsx&#45;&gt;../constants/testIds.ts -->
<g id="edge35" class="edge">
<title>SecurityLevelSelector.tsx&#45;&gt;../constants/testIds.ts</title>
<path fill="none" stroke="#757575" d="M749.84,-1245C839.1,-1248.49 981.56,-1241.31 1080,-1173.82 1163.15,-1116.81 1204.57,-994.9 1218.47,-945.39"/>
<polygon fill="#757575" stroke="#757575" points="1221.93,-946.03 1221.16,-935.46 1215.17,-944.2 1221.93,-946.03"/>
</g>
<!-- SecurityLevelSelector.tsx&#45;&gt;../hooks/useCIAOptions.ts -->
<g id="edge36" class="edge">
<title>SecurityLevelSelector.tsx&#45;&gt;../hooks/useCIAOptions.ts</title>
<path fill="none" stroke="#757575" d="M676.98,-1249.55C702.15,-1278.64 771.09,-1355.36 840,-1405.82 866.23,-1425.03 898.94,-1442.2 923.42,-1453.9"/>
<polygon fill="#757575" stroke="#757575" points="922.17,-1457.18 932.71,-1458.27 925.15,-1450.85 922.17,-1457.18"/>
</g>
<!-- SecurityLevelSelector.tsx&#45;&gt;common/KeyValuePair.tsx -->
<g id="edge37" class="edge">
<title>SecurityLevelSelector.tsx&#45;&gt;common/KeyValuePair.tsx</title>
<path fill="none" stroke="#757575" d="M681.48,-1226.31C728.77,-1188.74 878.9,-1069.46 936.34,-1023.82"/>
<polygon fill="#757575" stroke="#757575" points="938.78,-1026.35 944.43,-1017.39 934.43,-1020.87 938.78,-1026.35"/>
</g>
<!-- common/KeyValuePair.tsx&#45;&gt;../constants/testIds.ts -->
<g id="edge39" class="edge">
<title>common/KeyValuePair.tsx&#45;&gt;../constants/testIds.ts</title>
<path fill="none" stroke="#757575" d="M1045.12,-994.28C1056.94,-991.91 1068.85,-989.1 1080,-985.82 1120.11,-974 1163.94,-954.04 1192.58,-939.96"/>
<polygon fill="#757575" stroke="#757575" points="1194.29,-943.02 1201.68,-935.43 1191.17,-936.75 1194.29,-943.02"/>
</g>
<!-- Selection.tsx -->
<g id="node27" class="node">
<title>Selection.tsx</title>
<path fill="none" stroke="#c6c5fe" d="M998.83,-935.32C998.83,-935.32 921.17,-935.32 921.17,-935.32 917.33,-935.32 913.5,-931.49 913.5,-927.65 913.5,-927.65 913.5,-919.99 913.5,-919.99 913.5,-916.15 917.33,-912.32 921.17,-912.32 921.17,-912.32 998.83,-912.32 998.83,-912.32 1002.67,-912.32 1006.5,-916.15 1006.5,-919.99 1006.5,-919.99 1006.5,-927.65 1006.5,-927.65 1006.5,-931.49 1002.67,-935.32 998.83,-935.32"/>
<text text-anchor="middle" x="960" y="-920.12" font-family="Arial" font-size="14.00" fill="#c6c5fe">Selection.tsx</text>
</g>
<!-- Selection.tsx&#45;&gt;../constants/testIds.ts -->
<g id="edge38" class="edge">
<title>Selection.tsx&#45;&gt;../constants/testIds.ts</title>
<path fill="none" stroke="#757575" d="M1006.51,-923.82C1044.1,-923.82 1098.38,-923.82 1143.31,-923.82"/>
<polygon fill="#757575" stroke="#757575" points="1143.33,-927.32 1153.33,-923.82 1143.33,-920.32 1143.33,-927.32"/>
</g>
<!-- common/MetricsCard.tsx&#45;&gt;../constants/testIds.ts -->
<g id="edge40" class="edge">
<title>common/MetricsCard.tsx&#45;&gt;../constants/testIds.ts</title>
<path fill="none" stroke="#757575" d="M1044.08,-769.05C1056.53,-772.03 1068.9,-776.15 1080,-781.82 1137.76,-811.34 1187.16,-872.21 1210.17,-903.81"/>
<polygon fill="#757575" stroke="#757575" points="1207.54,-906.15 1216.2,-912.25 1213.24,-902.08 1207.54,-906.15"/>
</g>
<!-- common/StatusBadge.tsx&#45;&gt;../constants/testIds.ts -->
<g id="edge41" class="edge">
<title>common/StatusBadge.tsx&#45;&gt;../constants/testIds.ts</title>
<path fill="none" stroke="#757575" d="M993.45,-614.39C1019.34,-624.89 1055.24,-642.48 1080,-666.82 1152.91,-738.48 1199.75,-854.91 1216.79,-902.51"/>
<polygon fill="#757575" stroke="#757575" points="1213.53,-903.8 1220.14,-912.09 1220.14,-901.49 1213.53,-903.8"/>
</g>
<!-- common/ValueDisplay.tsx&#45;&gt;../constants/testIds.ts -->
<g id="edge42" class="edge">
<title>common/ValueDisplay.tsx&#45;&gt;../constants/testIds.ts</title>
<path fill="none" stroke="#757575" d="M1034.06,-814.34C1049.56,-818 1065.58,-822.74 1080,-828.82 1127.06,-848.67 1175.33,-884.23 1202.31,-905.76"/>
<polygon fill="#757575" stroke="#757575" points="1200.31,-908.65 1210.29,-912.22 1204.72,-903.21 1200.31,-908.65"/>
</g>
<!-- common/WidgetContainer.tsx&#45;&gt;../constants/testIds.ts -->
<g id="edge43" class="edge">
<title>common/WidgetContainer.tsx&#45;&gt;../constants/testIds.ts</title>
<path fill="none" stroke="#757575" d="M1034.96,-953.29C1068.7,-948.03 1108.74,-941.79 1143.26,-936.41"/>
<polygon fill="#757575" stroke="#757575" points="1143.97,-939.84 1153.31,-934.84 1142.89,-932.92 1143.97,-939.84"/>
</g>
<!-- widgets/CIAImpactSummaryWidget.tsx -->
<g id="node32" class="node">
<title>widgets/CIAImpactSummaryWidget.tsx</title>
<path fill="none" stroke="#c6c5fe" d="M784.83,-692.32C784.83,-692.32 547.17,-692.32 547.17,-692.32 543.33,-692.32 539.5,-688.49 539.5,-684.65 539.5,-684.65 539.5,-676.99 539.5,-676.99 539.5,-673.15 543.33,-669.32 547.17,-669.32 547.17,-669.32 784.83,-669.32 784.83,-669.32 788.67,-669.32 792.5,-673.15 792.5,-676.99 792.5,-676.99 792.5,-684.65 792.5,-684.65 792.5,-688.49 788.67,-692.32 784.83,-692.32"/>
<text text-anchor="middle" x="666" y="-677.12" font-family="Arial" font-size="14.00" fill="#c6c5fe">widgets/CIAImpactSummaryWidget.tsx</text>
</g>
<!-- widgets/CIAImpactSummaryWidget.tsx&#45;&gt;../constants/testIds.ts -->
<g id="edge61" class="edge">
<title>widgets/CIAImpactSummaryWidget.tsx&#45;&gt;../constants/testIds.ts</title>
<path fill="none" stroke="#757575" d="M717.13,-669.29C799.16,-653.29 964.48,-633.26 1080,-699.82 1159.9,-745.86 1202.71,-856.14 1217.72,-902.6"/>
<polygon fill="#757575" stroke="#757575" points="1214.41,-903.74 1220.73,-912.24 1221.09,-901.65 1214.41,-903.74"/>
</g>
<!-- widgets/CIAImpactSummaryWidget.tsx&#45;&gt;common/ValueDisplay.tsx -->
<g id="edge62" class="edge">
<title>widgets/CIAImpactSummaryWidget.tsx&#45;&gt;common/ValueDisplay.tsx</title>
<path fill="none" stroke="#757575" d="M682.73,-692.62C712.03,-713.98 777.64,-758.94 840,-781.82 847.72,-784.65 855.86,-787.1 864.11,-789.23"/>
<polygon fill="#757575" stroke="#757575" points="863.29,-792.64 873.83,-791.59 864.94,-785.83 863.29,-792.64"/>
</g>
<!-- widgets/CombinedBusinessImpactWidget.tsx -->
<g id="node33" class="node">
<title>widgets/CombinedBusinessImpactWidget.tsx</title>
<path fill="none" stroke="#c6c5fe" d="M484.33,-595.32C484.33,-595.32 211.67,-595.32 211.67,-595.32 207.83,-595.32 204,-591.49 204,-587.65 204,-587.65 204,-579.99 204,-579.99 204,-576.15 207.83,-572.32 211.67,-572.32 211.67,-572.32 484.33,-572.32 484.33,-572.32 488.17,-572.32 492,-576.15 492,-579.99 492,-579.99 492,-587.65 492,-587.65 492,-591.49 488.17,-595.32 484.33,-595.32"/>
<text text-anchor="middle" x="348" y="-580.12" font-family="Arial" font-size="14.00" fill="#c6c5fe">widgets/CombinedBusinessImpactWidget.tsx</text>
</g>
<!-- widgets/CombinedBusinessImpactWidget.tsx&#45;&gt;../types/cia.ts -->
<g id="edge63" class="edge">
<title>widgets/CombinedBusinessImpactWidget.tsx&#45;&gt;../types/cia.ts</title>
<path fill="none" stroke="#757575" d="M355.03,-572.12C374.61,-535.29 440.26,-420.8 528,-362.82 648.3,-283.32 697.19,-293.79 840,-273.82 1158.3,-229.31 1301.4,-172.99 1557,-367.82 1583.26,-387.84 1568.71,-410.45 1593,-432.82 1603.73,-442.7 1617.38,-450.41 1630.65,-456.27"/>
<polygon fill="#757575" stroke="#757575" points="1629.61,-459.63 1640.19,-460.21 1632.29,-453.16 1629.61,-459.63"/>
</g>
<!-- widgets/CombinedBusinessImpactWidget.tsx&#45;&gt;../types/widgets.ts -->
<g id="edge64" class="edge">
<title>widgets/CombinedBusinessImpactWidget.tsx&#45;&gt;../types/widgets.ts</title>
<path fill="none" stroke="#757575" d="M352.21,-595.37C365.2,-639.7 418.59,-799.68 528,-862.82 587.24,-897 781.27,-892.59 887.65,-887.26"/>
<polygon fill="#757575" stroke="#757575" points="887.86,-890.75 897.66,-886.74 887.49,-883.76 887.86,-890.75"/>
</g>
<!-- widgets/CombinedBusinessImpactWidget.tsx&#45;&gt;widgets/BusinessImpactAnalysisWidget.tsx -->
<g id="edge65" class="edge">
<title>widgets/CombinedBusinessImpactWidget.tsx&#45;&gt;widgets/BusinessImpactAnalysisWidget.tsx</title>
<path fill="none" stroke="#757575" d="M386.49,-572.31C444.06,-554.64 554.2,-520.83 617.35,-501.45"/>
<polygon fill="#757575" stroke="#757575" points="618.53,-504.74 627.07,-498.46 616.48,-498.05 618.53,-504.74"/>
</g>
<!-- widgets/CombinedBusinessImpactWidget.tsx&#45;&gt;widgets/CIAImpactSummaryWidget.tsx -->
<g id="edge66" class="edge">
<title>widgets/CombinedBusinessImpactWidget.tsx&#45;&gt;widgets/CIAImpactSummaryWidget.tsx</title>
<path fill="none" stroke="#757575" d="M386.49,-595.33C444.06,-613 554.2,-646.81 617.35,-666.19"/>
<polygon fill="#757575" stroke="#757575" points="616.48,-669.59 627.07,-669.17 618.53,-662.89 616.48,-669.59"/>
</g>
<!-- widgets/SecurityLevelWidget.tsx -->
<g id="node34" class="node">
<title>widgets/SecurityLevelWidget.tsx</title>
<path fill="none" stroke="#c6c5fe" d="M445.83,-1289.32C445.83,-1289.32 250.17,-1289.32 250.17,-1289.32 246.33,-1289.32 242.5,-1285.49 242.5,-1281.65 242.5,-1281.65 242.5,-1273.99 242.5,-1273.99 242.5,-1270.15 246.33,-1266.32 250.17,-1266.32 250.17,-1266.32 445.83,-1266.32 445.83,-1266.32 449.67,-1266.32 453.5,-1270.15 453.5,-1273.99 453.5,-1273.99 453.5,-1281.65 453.5,-1281.65 453.5,-1285.49 449.67,-1289.32 445.83,-1289.32"/>
<text text-anchor="middle" x="348" y="-1274.12" font-family="Arial" font-size="14.00" fill="#c6c5fe">widgets/SecurityLevelWidget.tsx</text>
</g>
<!-- widgets/SecurityLevelWidget.tsx&#45;&gt;../constants/appConstants.ts -->
<g id="edge73" class="edge">
<title>widgets/SecurityLevelWidget.tsx&#45;&gt;../constants/appConstants.ts</title>
<path fill="none" stroke="#757575" d="M385.85,-1289.37C547.08,-1338.91 1188.9,-1525.21 1334,-1398.82 1419.47,-1324.36 1296.69,-1228.7 1369.33,-1141.01"/>
<polygon fill="#757575" stroke="#757575" points="1372.12,-1143.14 1376.19,-1133.36 1366.9,-1138.47 1372.12,-1143.14"/>
</g>
<!-- widgets/SecurityLevelWidget.tsx&#45;&gt;../constants/testIds.ts -->
<g id="edge74" class="edge">
<title>widgets/SecurityLevelWidget.tsx&#45;&gt;../constants/testIds.ts</title>
<path fill="none" stroke="#757575" d="M453.69,-1282.85C631.51,-1289.29 982.72,-1292.29 1080,-1221.82 1175.97,-1152.29 1210.77,-1001.36 1220.67,-945.33"/>
<polygon fill="#757575" stroke="#757575" points="1224.13,-945.88 1222.33,-935.44 1217.22,-944.72 1224.13,-945.88"/>
</g>
<!-- widgets/SecurityLevelWidget.tsx&#45;&gt;SecurityLevelSelector.tsx -->
<g id="edge75" class="edge">
<title>widgets/SecurityLevelWidget.tsx&#45;&gt;SecurityLevelSelector.tsx</title>
<path fill="none" stroke="#757575" d="M439.98,-1266.3C481.5,-1261.05 530.6,-1254.83 572.32,-1249.55"/>
<polygon fill="#757575" stroke="#757575" points="573,-1252.99 582.48,-1248.26 572.12,-1246.05 573,-1252.99"/>
</g>
<!-- widgets/TechnicalDetailsWidget.tsx -->
<g id="node35" class="node">
<title>widgets/TechnicalDetailsWidget.tsx</title>
<path fill="none" stroke="#c6c5fe" d="M771.83,-594.32C771.83,-594.32 560.17,-594.32 560.17,-594.32 556.33,-594.32 552.5,-590.49 552.5,-586.65 552.5,-586.65 552.5,-578.99 552.5,-578.99 552.5,-575.15 556.33,-571.32 560.17,-571.32 560.17,-571.32 771.83,-571.32 771.83,-571.32 775.67,-571.32 779.5,-575.15 779.5,-578.99 779.5,-578.99 779.5,-586.65 779.5,-586.65 779.5,-590.49 775.67,-594.32 771.83,-594.32"/>
<text text-anchor="middle" x="666" y="-579.12" font-family="Arial" font-size="14.00" fill="#c6c5fe">widgets/TechnicalDetailsWidget.tsx</text>
</g>
<!-- widgets/TechnicalDetailsWidget.tsx&#45;&gt;../constants/appConstants.ts -->
<g id="edge85" class="edge">
<title>widgets/TechnicalDetailsWidget.tsx&#45;&gt;../constants/appConstants.ts</title>
<path fill="none" stroke="#757575" d="M696.31,-571.25C766.89,-545.34 950.08,-489.91 1080,-555.82 1314.54,-674.8 1429.76,-1012.34 1456.39,-1100.53"/>
<polygon fill="#757575" stroke="#757575" points="1453.06,-1101.63 1459.26,-1110.23 1459.78,-1099.64 1453.06,-1101.63"/>
</g>
<!-- widgets/TechnicalDetailsWidget.tsx&#45;&gt;../types/cia.ts -->
<g id="edge87" class="edge">
<title>widgets/TechnicalDetailsWidget.tsx&#45;&gt;../types/cia.ts</title>
<path fill="none" stroke="#757575" d="M692.14,-571.23C725.23,-556.57 785.6,-531.91 840,-520.82 990.21,-490.18 1458.95,-476.83 1622.51,-473.03"/>
<polygon fill="#757575" stroke="#757575" points="1622.91,-476.52 1632.83,-472.79 1622.75,-469.52 1622.91,-476.52"/>
</g>
<!-- widgets/TechnicalDetailsWidget.tsx&#45;&gt;../constants/testIds.ts -->
<g id="edge86" class="edge">
<title>widgets/TechnicalDetailsWidget.tsx&#45;&gt;../constants/testIds.ts</title>
<path fill="none" stroke="#757575" d="M756.93,-571.29C862.3,-559.71 1029,-547.96 1080,-581.82 1108.91,-601.01 1191.14,-830.12 1216.48,-902.23"/>
<polygon fill="#757575" stroke="#757575" points="1213.31,-903.76 1219.91,-912.05 1219.91,-901.45 1213.31,-903.76"/>
</g>
<!-- widgets/TechnicalDetailsWidget.tsx&#45;&gt;common/KeyValuePair.tsx -->
<g id="edge88" class="edge">
<title>widgets/TechnicalDetailsWidget.tsx&#45;&gt;common/KeyValuePair.tsx</title>
<path fill="none" stroke="#757575" d="M707.68,-594.39C739.41,-605.67 781.72,-626.14 804,-659.82 844.21,-720.61 789.94,-932.85 840,-985.82 846.45,-992.64 854.28,-997.69 862.82,-1001.37"/>
<polygon fill="#757575" stroke="#757575" points="861.73,-1004.7 872.33,-1004.85 864.14,-998.13 861.73,-1004.7"/>
</g>
<!-- widgets/TechnicalDetailsWidget.tsx&#45;&gt;common/StatusBadge.tsx -->
<g id="edge89" class="edge">
<title>widgets/TechnicalDetailsWidget.tsx&#45;&gt;common/StatusBadge.tsx</title>
<path fill="none" stroke="#757575" d="M779.89,-590.55C807.5,-592.44 836.78,-594.45 863.48,-596.28"/>
<polygon fill="#757575" stroke="#757575" points="863.37,-599.78 873.58,-596.97 863.84,-592.79 863.37,-599.78"/>
</g>
<!-- widgets/TechnicalDetailsWidget.tsx&#45;&gt;common/ValueDisplay.tsx -->
<g id="edge90" class="edge">
<title>widgets/TechnicalDetailsWidget.tsx&#45;&gt;common/ValueDisplay.tsx</title>
<path fill="none" stroke="#757575" d="M703.05,-594.33C734.13,-606.04 777.98,-627.17 804,-659.82 839.23,-704.03 797.84,-744.15 840,-781.82 847.14,-788.2 855.52,-792.97 864.46,-796.51"/>
<polygon fill="#757575" stroke="#757575" points="863.37,-799.83 873.96,-799.76 865.64,-793.21 863.37,-799.83"/>
</g>
</g>
</svg>
