<?xml version="1.0" encoding="UTF-8" standalone="no"?>
<!DOCTYPE svg PUBLIC "-//W3C//DTD SVG 1.1//EN"
 "http://www.w3.org/Graphics/SVG/1.1/DTD/svg11.dtd">
<!-- Generated by graphviz version 2.43.0 (0)
 -->
<!-- Title: G Pages: 1 -->
<svg width="2293pt" height="1658pt"
 viewBox="0.00 0.00 2293.20 1658.07" xmlns="http://www.w3.org/2000/svg" xmlns:xlink="http://www.w3.org/1999/xlink">
<g id="graph0" class="graph" transform="scale(1 1) rotate(0) translate(21.6 1636.47)">
<title>G</title>
<polygon fill="#111111" stroke="transparent" points="-21.6,21.6 -21.6,-1636.47 2271.6,-1636.47 2271.6,21.6 -21.6,21.6"/>
<!-- ../constants/appConstants.ts -->
<g id="node1" class="node">
<title>../constants/appConstants.ts</title>
<path fill="none" stroke="#c6c5fe" d="M1753.33,-1139.16C1753.33,-1139.16 1553.67,-1139.16 1553.67,-1139.16 1549.83,-1139.16 1546,-1135.33 1546,-1131.5 1546,-1131.5 1546,-1123.83 1546,-1123.83 1546,-1120 1549.83,-1116.16 1553.67,-1116.16 1553.67,-1116.16 1753.33,-1116.16 1753.33,-1116.16 1757.17,-1116.16 1761,-1120 1761,-1123.83 1761,-1123.83 1761,-1131.5 1761,-1131.5 1761,-1135.33 1757.17,-1139.16 1753.33,-1139.16"/>
<text text-anchor="middle" x="1653.5" y="-1123.96" font-family="Arial" font-size="14.00" fill="#c6c5fe">../constants/appConstants.ts</text>
</g>
<!-- ../constants/riskConstants.ts -->
<g id="node2" class="node">
<title>../constants/riskConstants.ts</title>
<path fill="none" stroke="#cfffac" d="M2242.33,-236.16C2242.33,-236.16 2042.67,-236.16 2042.67,-236.16 2038.83,-236.16 2035,-232.33 2035,-228.5 2035,-228.5 2035,-220.83 2035,-220.83 2035,-217 2038.83,-213.16 2042.67,-213.16 2042.67,-213.16 2242.33,-213.16 2242.33,-213.16 2246.17,-213.16 2250,-217 2250,-220.83 2250,-220.83 2250,-228.5 2250,-228.5 2250,-232.33 2246.17,-236.16 2242.33,-236.16"/>
<text text-anchor="middle" x="2142.5" y="-220.96" font-family="Arial" font-size="14.00" fill="#cfffac">../constants/riskConstants.ts</text>
</g>
<!-- ../constants/appConstants.ts&#45;&gt;../constants/riskConstants.ts -->
<g id="edge1" class="edge">
<title>../constants/appConstants.ts&#45;&gt;../constants/riskConstants.ts</title>
<path fill="none" stroke="#757575" d="M1660.92,-1116.11C1695.7,-1053.56 1864.76,-748.89 1999,-497.66 2049.12,-403.87 2107.38,-291.02 2130.88,-245.35"/>
<polygon fill="#757575" stroke="#757575" points="2134.01,-246.91 2135.47,-236.41 2127.78,-243.7 2134.01,-246.91"/>
</g>
<!-- ../constants/uiConstants.ts -->
<g id="node3" class="node">
<title>../constants/uiConstants.ts</title>
<path fill="none" stroke="#cfffac" d="M1991.33,-430.16C1991.33,-430.16 1804.67,-430.16 1804.67,-430.16 1800.83,-430.16 1797,-426.33 1797,-422.5 1797,-422.5 1797,-414.83 1797,-414.83 1797,-411 1800.83,-407.16 1804.67,-407.16 1804.67,-407.16 1991.33,-407.16 1991.33,-407.16 1995.17,-407.16 1999,-411 1999,-414.83 1999,-414.83 1999,-422.5 1999,-422.5 1999,-426.33 1995.17,-430.16 1991.33,-430.16"/>
<text text-anchor="middle" x="1898" y="-414.96" font-family="Arial" font-size="14.00" fill="#cfffac">../constants/uiConstants.ts</text>
</g>
<!-- ../constants/appConstants.ts&#45;&gt;../constants/uiConstants.ts -->
<g id="edge2" class="edge">
<title>../constants/appConstants.ts&#45;&gt;../constants/uiConstants.ts</title>
<path fill="none" stroke="#757575" d="M1656.66,-1115.95C1672.76,-1028.76 1774.19,-483.28 1797,-456.66 1805.47,-446.77 1816.81,-439.45 1828.8,-434.03"/>
<polygon fill="#757575" stroke="#757575" points="1830.13,-437.27 1838.06,-430.24 1827.48,-430.79 1830.13,-437.27"/>
</g>
<!-- ../types/cia.ts -->
<g id="node4" class="node">
<title>../types/cia.ts</title>
<path fill="none" stroke="#c6c5fe" d="M1945.33,-489.16C1945.33,-489.16 1850.67,-489.16 1850.67,-489.16 1846.83,-489.16 1843,-485.33 1843,-481.5 1843,-481.5 1843,-473.83 1843,-473.83 1843,-470 1846.83,-466.16 1850.67,-466.16 1850.67,-466.16 1945.33,-466.16 1945.33,-466.16 1949.17,-466.16 1953,-470 1953,-473.83 1953,-473.83 1953,-481.5 1953,-481.5 1953,-485.33 1949.17,-489.16 1945.33,-489.16"/>
<text text-anchor="middle" x="1898" y="-473.96" font-family="Arial" font-size="14.00" fill="#c6c5fe">../types/cia.ts</text>
</g>
<!-- ../constants/appConstants.ts&#45;&gt;../types/cia.ts -->
<g id="edge3" class="edge">
<title>../constants/appConstants.ts&#45;&gt;../types/cia.ts</title>
<path fill="none" stroke="#757575" d="M1658.81,-1116.1C1687.53,-1039.12 1851.18,-600.48 1889.14,-498.74"/>
<polygon fill="#757575" stroke="#757575" points="1892.47,-499.82 1892.68,-489.23 1885.91,-497.38 1892.47,-499.82"/>
</g>
<!-- ../types/cia.ts&#45;&gt;../constants/riskConstants.ts -->
<g id="edge18" class="edge">
<title>../types/cia.ts&#45;&gt;../constants/riskConstants.ts</title>
<path fill="none" stroke="#757575" d="M1945.41,-466.11C1963.45,-460.03 1983.47,-451.16 1999,-438.66 2067.11,-383.86 2114.41,-287.66 2132.88,-245.47"/>
<polygon fill="#757575" stroke="#757575" points="2136.13,-246.77 2136.85,-236.2 2129.7,-244.01 2136.13,-246.77"/>
</g>
<!-- ../constants/businessConstants.ts -->
<g id="node5" class="node">
<title>../constants/businessConstants.ts</title>
<path fill="none" stroke="#c6c5fe" d="M1502.33,-82.16C1502.33,-82.16 1266.67,-82.16 1266.67,-82.16 1262.83,-82.16 1259,-78.33 1259,-74.5 1259,-74.5 1259,-66.83 1259,-66.83 1259,-63 1262.83,-59.16 1266.67,-59.16 1266.67,-59.16 1502.33,-59.16 1502.33,-59.16 1506.17,-59.16 1510,-63 1510,-66.83 1510,-66.83 1510,-74.5 1510,-74.5 1510,-78.33 1506.17,-82.16 1502.33,-82.16"/>
<text text-anchor="middle" x="1384.5" y="-66.96" font-family="Arial" font-size="14.00" fill="#c6c5fe">../constants/businessConstants.ts</text>
</g>
<!-- ../constants/businessConstants.ts&#45;&gt;../constants/riskConstants.ts -->
<g id="edge4" class="edge">
<title>../constants/businessConstants.ts&#45;&gt;../constants/riskConstants.ts</title>
<path fill="none" stroke="#757575" d="M1447.47,-82.19C1558.33,-102.96 1797.84,-148.55 1999,-191.66 2026.84,-197.63 2057.63,-204.7 2083.44,-210.76"/>
<polygon fill="#757575" stroke="#757575" points="2082.9,-214.23 2093.44,-213.12 2084.51,-207.42 2082.9,-214.23"/>
</g>
<!-- ../types/businessImpact.ts -->
<g id="node6" class="node">
<title>../types/businessImpact.ts</title>
<path fill="none" stroke="#c6c5fe" d="M1745.83,-196.16C1745.83,-196.16 1561.17,-196.16 1561.17,-196.16 1557.33,-196.16 1553.5,-192.33 1553.5,-188.5 1553.5,-188.5 1553.5,-180.83 1553.5,-180.83 1553.5,-177 1557.33,-173.16 1561.17,-173.16 1561.17,-173.16 1745.83,-173.16 1745.83,-173.16 1749.67,-173.16 1753.5,-177 1753.5,-180.83 1753.5,-180.83 1753.5,-188.5 1753.5,-188.5 1753.5,-192.33 1749.67,-196.16 1745.83,-196.16"/>
<text text-anchor="middle" x="1653.5" y="-180.96" font-family="Arial" font-size="14.00" fill="#c6c5fe">../types/businessImpact.ts</text>
</g>
<!-- ../constants/businessConstants.ts&#45;&gt;../types/businessImpact.ts -->
<g id="edge5" class="edge">
<title>../constants/businessConstants.ts&#45;&gt;../types/businessImpact.ts</title>
<path fill="none" stroke="#757575" d="M1464.68,-82.22C1480.06,-85.84 1495.8,-90.55 1510,-96.66 1527.89,-104.36 1529.61,-111.14 1546,-121.66 1571.63,-138.11 1601.53,-155.66 1623.11,-168.05"/>
<polygon fill="#757575" stroke="#757575" points="1621.4,-171.1 1631.81,-173.02 1624.87,-165.02 1621.4,-171.1"/>
</g>
<!-- ../types/businessImpact.ts&#45;&gt;../constants/riskConstants.ts -->
<g id="edge17" class="edge">
<title>../types/businessImpact.ts&#45;&gt;../constants/riskConstants.ts</title>
<path fill="none" stroke="#757575" d="M1753.67,-191.55C1822.53,-196.48 1916.39,-203.49 1999,-210.66 2007.37,-211.39 2016.01,-212.17 2024.7,-212.97"/>
<polygon fill="#757575" stroke="#757575" points="2024.64,-216.48 2034.92,-213.93 2025.29,-209.51 2024.64,-216.48"/>
</g>
<!-- ../constants/coreConstants.ts -->
<g id="node7" class="node">
<title>../constants/coreConstants.ts</title>
<path fill="none" stroke="#c6c5fe" d="M1485.83,-352.16C1485.83,-352.16 1283.17,-352.16 1283.17,-352.16 1279.33,-352.16 1275.5,-348.33 1275.5,-344.5 1275.5,-344.5 1275.5,-336.83 1275.5,-336.83 1275.5,-333 1279.33,-329.16 1283.17,-329.16 1283.17,-329.16 1485.83,-329.16 1485.83,-329.16 1489.67,-329.16 1493.5,-333 1493.5,-336.83 1493.5,-336.83 1493.5,-344.5 1493.5,-344.5 1493.5,-348.33 1489.67,-352.16 1485.83,-352.16"/>
<text text-anchor="middle" x="1384.5" y="-336.96" font-family="Arial" font-size="14.00" fill="#c6c5fe">../constants/coreConstants.ts</text>
</g>
<!-- ../constants/coreConstants.ts&#45;&gt;../types/cia.ts -->
<g id="edge6" class="edge">
<title>../constants/coreConstants.ts&#45;&gt;../types/cia.ts</title>
<path fill="none" stroke="#757575" d="M1445.23,-352.21C1465.83,-356.43 1488.99,-361.46 1510,-366.66 1633.93,-397.33 1778.03,-440.74 1850.43,-463.1"/>
<polygon fill="#757575" stroke="#757575" points="1849.57,-466.5 1860.15,-466.11 1851.64,-459.81 1849.57,-466.5"/>
</g>
<!-- ../constants/index.ts -->
<g id="node8" class="node">
<title>../constants/index.ts</title>
<path fill="none" stroke="#c6c5fe" d="M1156.83,-312.16C1156.83,-312.16 1014.17,-312.16 1014.17,-312.16 1010.33,-312.16 1006.5,-308.33 1006.5,-304.5 1006.5,-304.5 1006.5,-296.83 1006.5,-296.83 1006.5,-293 1010.33,-289.16 1014.17,-289.16 1014.17,-289.16 1156.83,-289.16 1156.83,-289.16 1160.67,-289.16 1164.5,-293 1164.5,-296.83 1164.5,-296.83 1164.5,-304.5 1164.5,-304.5 1164.5,-308.33 1160.67,-312.16 1156.83,-312.16"/>
<text text-anchor="middle" x="1085.5" y="-296.96" font-family="Arial" font-size="14.00" fill="#c6c5fe">../constants/index.ts</text>
</g>
<!-- ../constants/index.ts&#45;&gt;../constants/appConstants.ts -->
<g id="edge7" class="edge">
<title>../constants/index.ts&#45;&gt;../constants/appConstants.ts</title>
<path fill="none" stroke="#757575" d="M1112.33,-312.27C1186.41,-346.93 1401.26,-457.18 1510,-615.66 1622.71,-779.93 1646.67,-1031.32 1651.4,-1106.02"/>
<polygon fill="#757575" stroke="#757575" points="1647.91,-1106.31 1651.99,-1116.09 1654.9,-1105.9 1647.91,-1106.31"/>
</g>
<!-- ../constants/index.ts&#45;&gt;../constants/riskConstants.ts -->
<g id="edge10" class="edge">
<title>../constants/index.ts&#45;&gt;../constants/riskConstants.ts</title>
<path fill="none" stroke="#757575" d="M1164.51,-295.04C1347.98,-281.83 1807.72,-248.71 2024.68,-233.08"/>
<polygon fill="#757575" stroke="#757575" points="2025.1,-236.56 2034.82,-232.35 2024.6,-229.57 2025.1,-236.56"/>
</g>
<!-- ../constants/index.ts&#45;&gt;../constants/uiConstants.ts -->
<g id="edge12" class="edge">
<title>../constants/index.ts&#45;&gt;../constants/uiConstants.ts</title>
<path fill="none" stroke="#757575" d="M1164.5,-300.27C1249.73,-300.75 1390.11,-304.19 1510,-319.66 1623.17,-334.27 1650.9,-343.7 1761,-373.66 1793.27,-382.45 1829.17,-394.42 1855.98,-403.81"/>
<polygon fill="#757575" stroke="#757575" points="1854.82,-407.11 1865.42,-407.14 1857.15,-400.51 1854.82,-407.11"/>
</g>
<!-- ../constants/index.ts&#45;&gt;../constants/businessConstants.ts -->
<g id="edge8" class="edge">
<title>../constants/index.ts&#45;&gt;../constants/businessConstants.ts</title>
<path fill="none" stroke="#757575" d="M1101.64,-288.94C1150.1,-251.41 1301.66,-134.04 1360.15,-88.75"/>
<polygon fill="#757575" stroke="#757575" points="1362.63,-91.25 1368.39,-82.36 1358.34,-85.72 1362.63,-91.25"/>
</g>
<!-- ../constants/index.ts&#45;&gt;../types/businessImpact.ts -->
<g id="edge13" class="edge">
<title>../constants/index.ts&#45;&gt;../types/businessImpact.ts</title>
<path fill="none" stroke="#757575" d="M1120.19,-289.07C1154.7,-277.53 1210.09,-259.96 1259,-248.66 1356.82,-226.07 1470.11,-208.53 1549.94,-197.57"/>
<polygon fill="#757575" stroke="#757575" points="1550.56,-201.02 1560,-196.2 1549.62,-194.09 1550.56,-201.02"/>
</g>
<!-- ../constants/index.ts&#45;&gt;../constants/coreConstants.ts -->
<g id="edge9" class="edge">
<title>../constants/index.ts&#45;&gt;../constants/coreConstants.ts</title>
<path fill="none" stroke="#757575" d="M1164.53,-311.17C1202.32,-316.26 1248.03,-322.42 1287.9,-327.79"/>
<polygon fill="#757575" stroke="#757575" points="1287.52,-331.27 1297.9,-329.13 1288.45,-324.33 1287.52,-331.27"/>
</g>
<!-- ../constants/testIds.ts -->
<g id="node9" class="node">
<title>../constants/testIds.ts</title>
<path fill="none" stroke="#c6c5fe" d="M1460.33,-941.16C1460.33,-941.16 1308.67,-941.16 1308.67,-941.16 1304.83,-941.16 1301,-937.33 1301,-933.5 1301,-933.5 1301,-925.83 1301,-925.83 1301,-922 1304.83,-918.16 1308.67,-918.16 1308.67,-918.16 1460.33,-918.16 1460.33,-918.16 1464.17,-918.16 1468,-922 1468,-925.83 1468,-925.83 1468,-933.5 1468,-933.5 1468,-937.33 1464.17,-941.16 1460.33,-941.16"/>
<text text-anchor="middle" x="1384.5" y="-925.96" font-family="Arial" font-size="14.00" fill="#c6c5fe">../constants/testIds.ts</text>
</g>
<!-- ../constants/index.ts&#45;&gt;../constants/testIds.ts -->
<g id="edge11" class="edge">
<title>../constants/index.ts&#45;&gt;../constants/testIds.ts</title>
<path fill="none" stroke="#757575" d="M1097.52,-312.26C1122.78,-339.38 1185.61,-409.9 1223,-478.66 1307.24,-633.59 1362.1,-841.53 1378.41,-908.17"/>
<polygon fill="#757575" stroke="#757575" points="1375.02,-909.05 1380.77,-917.95 1381.83,-907.41 1375.02,-909.05"/>
</g>
<!-- ../constants/testIds.ts&#45;&gt;../constants/appConstants.ts -->
<g id="edge14" class="edge">
<title>../constants/testIds.ts&#45;&gt;../constants/appConstants.ts</title>
<path fill="none" stroke="#757575" d="M1401.01,-941.16C1445.71,-974.31 1575.04,-1070.22 1628.71,-1110.02"/>
<polygon fill="#757575" stroke="#757575" points="1626.83,-1112.98 1636.95,-1116.13 1631,-1107.36 1626.83,-1112.98"/>
</g>
<!-- ../hooks/useCIAOptions.ts -->
<g id="node10" class="node">
<title>../hooks/useCIAOptions.ts</title>
<path fill="none" stroke="#c6c5fe" d="M1175.33,-1487.16C1175.33,-1487.16 995.67,-1487.16 995.67,-1487.16 991.83,-1487.16 988,-1483.33 988,-1479.5 988,-1479.5 988,-1471.83 988,-1471.83 988,-1468 991.83,-1464.16 995.67,-1464.16 995.67,-1464.16 1175.33,-1464.16 1175.33,-1464.16 1179.17,-1464.16 1183,-1468 1183,-1471.83 1183,-1471.83 1183,-1479.5 1183,-1479.5 1183,-1483.33 1179.17,-1487.16 1175.33,-1487.16"/>
<text text-anchor="middle" x="1085.5" y="-1471.96" font-family="Arial" font-size="14.00" fill="#c6c5fe">../hooks/useCIAOptions.ts</text>
</g>
<!-- ../hooks/useCIAOptions.ts&#45;&gt;../constants/riskConstants.ts -->
<g id="edge15" class="edge">
<title>../hooks/useCIAOptions.ts&#45;&gt;../constants/riskConstants.ts</title>
<path fill="none" stroke="#757575" d="M1113.93,-1487.23C1182.74,-1514.52 1367.34,-1576.94 1510,-1526.66 1645.05,-1479.07 1677.06,-1440.67 1761,-1324.66 2032.12,-949.98 2122.59,-366.05 2138.72,-246.49"/>
<polygon fill="#757575" stroke="#757575" points="2142.21,-246.76 2140.05,-236.39 2135.27,-245.84 2142.21,-246.76"/>
</g>
<!-- ../hooks/useCIAOptions.ts&#45;&gt;../types/cia.ts -->
<g id="edge16" class="edge">
<title>../hooks/useCIAOptions.ts&#45;&gt;../types/cia.ts</title>
<path fill="none" stroke="#757575" d="M1117.68,-1487.21C1190.94,-1512.29 1377.79,-1564.32 1510,-1496.66 1679.76,-1409.79 1684.56,-1323.37 1761,-1148.66 1865.87,-908.96 1890.94,-585.39 1895.91,-499.39"/>
<polygon fill="#757575" stroke="#757575" points="1899.42,-499.45 1896.47,-489.27 1892.43,-499.06 1899.42,-499.45"/>
</g>
<!-- ../styles/gridStyles.ts -->
<g id="node11" class="node">
<title>../styles/gridStyles.ts</title>
<path fill="none" stroke="#cfffac" d="M467.33,-1447.16C467.33,-1447.16 320.67,-1447.16 320.67,-1447.16 316.83,-1447.16 313,-1443.33 313,-1439.5 313,-1439.5 313,-1431.83 313,-1431.83 313,-1428 316.83,-1424.16 320.67,-1424.16 320.67,-1424.16 467.33,-1424.16 467.33,-1424.16 471.17,-1424.16 475,-1428 475,-1431.83 475,-1431.83 475,-1439.5 475,-1439.5 475,-1443.33 471.17,-1447.16 467.33,-1447.16"/>
<text text-anchor="middle" x="394" y="-1431.96" font-family="Arial" font-size="14.00" fill="#cfffac">../styles/gridStyles.ts</text>
</g>
<!-- ../tests/mockConstants.ts -->
<g id="node12" class="node">
<title>../tests/mockConstants.ts</title>
<path fill="none" stroke="#cfffac" d="M185.33,-1508.16C185.33,-1508.16 7.67,-1508.16 7.67,-1508.16 3.83,-1508.16 0,-1504.33 0,-1500.5 0,-1500.5 0,-1492.83 0,-1492.83 0,-1489 3.83,-1485.16 7.67,-1485.16 7.67,-1485.16 185.33,-1485.16 185.33,-1485.16 189.17,-1485.16 193,-1489 193,-1492.83 193,-1492.83 193,-1500.5 193,-1500.5 193,-1504.33 189.17,-1508.16 185.33,-1508.16"/>
<text text-anchor="middle" x="96.5" y="-1492.96" font-family="Arial" font-size="14.00" fill="#cfffac">../tests/mockConstants.ts</text>
</g>
<!-- ../types/widgets.ts -->
<g id="node13" class="node">
<title>../types/widgets.ts</title>
<path fill="none" stroke="#cfffac" d="M1149.83,-900.16C1149.83,-900.16 1021.17,-900.16 1021.17,-900.16 1017.33,-900.16 1013.5,-896.33 1013.5,-892.5 1013.5,-892.5 1013.5,-884.83 1013.5,-884.83 1013.5,-881 1017.33,-877.16 1021.17,-877.16 1021.17,-877.16 1149.83,-877.16 1149.83,-877.16 1153.67,-877.16 1157.5,-881 1157.5,-884.83 1157.5,-884.83 1157.5,-892.5 1157.5,-892.5 1157.5,-896.33 1153.67,-900.16 1149.83,-900.16"/>
<text text-anchor="middle" x="1085.5" y="-884.96" font-family="Arial" font-size="14.00" fill="#cfffac">../types/widgets.ts</text>
</g>
<!-- ../utils/typeGuards.ts -->
<g id="node14" class="node">
<title>../utils/typeGuards.ts</title>
<path fill="none" stroke="#c6c5fe" d="M1726.33,-575.16C1726.33,-575.16 1580.67,-575.16 1580.67,-575.16 1576.83,-575.16 1573,-571.33 1573,-567.5 1573,-567.5 1573,-559.83 1573,-559.83 1573,-556 1576.83,-552.16 1580.67,-552.16 1580.67,-552.16 1726.33,-552.16 1726.33,-552.16 1730.17,-552.16 1734,-556 1734,-559.83 1734,-559.83 1734,-567.5 1734,-567.5 1734,-571.33 1730.17,-575.16 1726.33,-575.16"/>
<text text-anchor="middle" x="1653.5" y="-559.96" font-family="Arial" font-size="14.00" fill="#c6c5fe">../utils/typeGuards.ts</text>
</g>
<!-- ../utils/typeGuards.ts&#45;&gt;../types/cia.ts -->
<g id="edge19" class="edge">
<title>../utils/typeGuards.ts&#45;&gt;../types/cia.ts</title>
<path fill="none" stroke="#757575" d="M1686.95,-552.15C1730.3,-536.78 1807.16,-509.52 1854.92,-492.59"/>
<polygon fill="#757575" stroke="#757575" points="1856.1,-495.88 1864.35,-489.24 1853.76,-489.28 1856.1,-495.88"/>
</g>
<!-- ../utils/widgetRegistry.tsx -->
<g id="node15" class="node">
<title>../utils/widgetRegistry.tsx</title>
<path fill="none" stroke="#c6c5fe" d="M481.83,-900.16C481.83,-900.16 306.17,-900.16 306.17,-900.16 302.33,-900.16 298.5,-896.33 298.5,-892.5 298.5,-892.5 298.5,-884.83 298.5,-884.83 298.5,-881 302.33,-877.16 306.17,-877.16 306.17,-877.16 481.83,-877.16 481.83,-877.16 485.67,-877.16 489.5,-881 489.5,-884.83 489.5,-884.83 489.5,-892.5 489.5,-892.5 489.5,-896.33 485.67,-900.16 481.83,-900.16"/>
<text text-anchor="middle" x="394" y="-884.96" font-family="Arial" font-size="14.00" fill="#c6c5fe">../utils/widgetRegistry.tsx</text>
</g>
<!-- ../utils/widgetRegistry.tsx&#45;&gt;../constants/coreConstants.ts -->
<g id="edge20" class="edge">
<title>../utils/widgetRegistry.tsx&#45;&gt;../constants/coreConstants.ts</title>
<path fill="none" stroke="#757575" d="M403.44,-877.05C430.06,-839.94 513.14,-720.2 559,-609.66 583.29,-551.12 551.06,-517.35 595,-471.66 708.63,-353.49 786.56,-393.15 948,-364.66 1054.27,-345.91 1177.18,-340.6 1265.27,-339.57"/>
<polygon fill="#757575" stroke="#757575" points="1265.33,-343.07 1275.3,-339.47 1265.26,-336.07 1265.33,-343.07"/>
</g>
<!-- common/index.ts -->
<g id="node16" class="node">
<title>common/index.ts</title>
<path fill="none" stroke="#c6c5fe" d="M814.33,-819.16C814.33,-819.16 692.67,-819.16 692.67,-819.16 688.83,-819.16 685,-815.33 685,-811.5 685,-811.5 685,-803.83 685,-803.83 685,-800 688.83,-796.16 692.67,-796.16 692.67,-796.16 814.33,-796.16 814.33,-796.16 818.17,-796.16 822,-800 822,-803.83 822,-803.83 822,-811.5 822,-811.5 822,-815.33 818.17,-819.16 814.33,-819.16"/>
<text text-anchor="middle" x="753.5" y="-803.96" font-family="Arial" font-size="14.00" fill="#c6c5fe">common/index.ts</text>
</g>
<!-- ../utils/widgetRegistry.tsx&#45;&gt;common/index.ts -->
<g id="edge21" class="edge">
<title>../utils/widgetRegistry.tsx&#45;&gt;common/index.ts</title>
<path fill="none" stroke="#757575" d="M426.77,-877.14C465.86,-863.39 534.48,-840.64 595,-827.66 620.7,-822.15 649.1,-817.97 674.63,-814.9"/>
<polygon fill="#757575" stroke="#757575" points="675.1,-818.37 684.63,-813.73 674.29,-811.41 675.1,-818.37"/>
</g>
<!-- widgets/BusinessImpactAnalysisWidget.tsx -->
<g id="node17" class="node">
<title>widgets/BusinessImpactAnalysisWidget.tsx</title>
<path fill="none" stroke="#c6c5fe" d="M904.33,-504.16C904.33,-504.16 602.67,-504.16 602.67,-504.16 598.83,-504.16 595,-500.33 595,-496.5 595,-496.5 595,-488.83 595,-488.83 595,-485 598.83,-481.16 602.67,-481.16 602.67,-481.16 904.33,-481.16 904.33,-481.16 908.17,-481.16 912,-485 912,-488.83 912,-488.83 912,-496.5 912,-496.5 912,-500.33 908.17,-504.16 904.33,-504.16"/>
<text text-anchor="middle" x="753.5" y="-488.96" font-family="Arial" font-size="14.00" fill="#c6c5fe">widgets/BusinessImpactAnalysisWidget.tsx</text>
</g>
<!-- ../utils/widgetRegistry.tsx&#45;&gt;widgets/BusinessImpactAnalysisWidget.tsx -->
<g id="edge22" class="edge">
<title>../utils/widgetRegistry.tsx&#45;&gt;widgets/BusinessImpactAnalysisWidget.tsx</title>
<path fill="none" stroke="#757575" d="M401.21,-876.82C428.66,-824.74 540.27,-616.54 595,-567.66 626.56,-539.48 670.58,-519.72 704.06,-507.58"/>
<polygon fill="#757575" stroke="#757575" points="705.37,-510.83 713.65,-504.21 703.05,-504.23 705.37,-510.83"/>
</g>
<!-- widgets/ComplianceStatusWidget.tsx -->
<g id="node18" class="node">
<title>widgets/ComplianceStatusWidget.tsx</title>
<path fill="none" stroke="#c6c5fe" d="M1215.33,-1331.16C1215.33,-1331.16 955.67,-1331.16 955.67,-1331.16 951.83,-1331.16 948,-1327.33 948,-1323.5 948,-1323.5 948,-1315.83 948,-1315.83 948,-1312 951.83,-1308.16 955.67,-1308.16 955.67,-1308.16 1215.33,-1308.16 1215.33,-1308.16 1219.17,-1308.16 1223,-1312 1223,-1315.83 1223,-1315.83 1223,-1323.5 1223,-1323.5 1223,-1327.33 1219.17,-1331.16 1215.33,-1331.16"/>
<text text-anchor="middle" x="1085.5" y="-1315.96" font-family="Arial" font-size="14.00" fill="#c6c5fe">widgets/ComplianceStatusWidget.tsx</text>
</g>
<!-- ../utils/widgetRegistry.tsx&#45;&gt;widgets/ComplianceStatusWidget.tsx -->
<g id="edge23" class="edge">
<title>../utils/widgetRegistry.tsx&#45;&gt;widgets/ComplianceStatusWidget.tsx</title>
<path fill="none" stroke="#757575" d="M410.21,-900.37C443.19,-925.57 524.01,-986.44 595,-1032.66 682.99,-1089.96 963.88,-1250.85 1055.38,-1303.07"/>
<polygon fill="#757575" stroke="#757575" points="1053.7,-1306.14 1064.12,-1308.05 1057.17,-1300.06 1053.7,-1306.14"/>
</g>
<!-- widgets/CostEstimationWidget.tsx -->
<g id="node19" class="node">
<title>widgets/CostEstimationWidget.tsx</title>
<path fill="none" stroke="#c6c5fe" d="M872.83,-1023.16C872.83,-1023.16 634.17,-1023.16 634.17,-1023.16 630.33,-1023.16 626.5,-1019.33 626.5,-1015.5 626.5,-1015.5 626.5,-1007.83 626.5,-1007.83 626.5,-1004 630.33,-1000.16 634.17,-1000.16 634.17,-1000.16 872.83,-1000.16 872.83,-1000.16 876.67,-1000.16 880.5,-1004 880.5,-1007.83 880.5,-1007.83 880.5,-1015.5 880.5,-1015.5 880.5,-1019.33 876.67,-1023.16 872.83,-1023.16"/>
<text text-anchor="middle" x="753.5" y="-1007.96" font-family="Arial" font-size="14.00" fill="#c6c5fe">widgets/CostEstimationWidget.tsx</text>
</g>
<!-- ../utils/widgetRegistry.tsx&#45;&gt;widgets/CostEstimationWidget.tsx -->
<g id="edge24" class="edge">
<title>../utils/widgetRegistry.tsx&#45;&gt;widgets/CostEstimationWidget.tsx</title>
<path fill="none" stroke="#757575" d="M428.63,-900.23C493.79,-922.65 637.15,-971.97 709.27,-996.79"/>
<polygon fill="#757575" stroke="#757575" points="708.36,-1000.18 718.96,-1000.12 710.64,-993.56 708.36,-1000.18"/>
</g>
<!-- widgets/SecuritySummaryWidget.tsx -->
<g id="node20" class="node">
<title>widgets/SecuritySummaryWidget.tsx</title>
<path fill="none" stroke="#c6c5fe" d="M882.83,-860.16C882.83,-860.16 624.17,-860.16 624.17,-860.16 620.33,-860.16 616.5,-856.33 616.5,-852.5 616.5,-852.5 616.5,-844.83 616.5,-844.83 616.5,-841 620.33,-837.16 624.17,-837.16 624.17,-837.16 882.83,-837.16 882.83,-837.16 886.67,-837.16 890.5,-841 890.5,-844.83 890.5,-844.83 890.5,-852.5 890.5,-852.5 890.5,-856.33 886.67,-860.16 882.83,-860.16"/>
<text text-anchor="middle" x="753.5" y="-844.96" font-family="Arial" font-size="14.00" fill="#c6c5fe">widgets/SecuritySummaryWidget.tsx</text>
</g>
<!-- ../utils/widgetRegistry.tsx&#45;&gt;widgets/SecuritySummaryWidget.tsx -->
<g id="edge25" class="edge">
<title>../utils/widgetRegistry.tsx&#45;&gt;widgets/SecuritySummaryWidget.tsx</title>
<path fill="none" stroke="#757575" d="M489.86,-878.05C535.83,-872.9 591.36,-866.69 639.5,-861.31"/>
<polygon fill="#757575" stroke="#757575" points="640.11,-864.76 649.65,-860.17 639.33,-857.8 640.11,-864.76"/>
</g>
<!-- widgets/ValueCreationWidget.tsx -->
<g id="node21" class="node">
<title>widgets/ValueCreationWidget.tsx</title>
<path fill="none" stroke="#c6c5fe" d="M868.33,-940.16C868.33,-940.16 638.67,-940.16 638.67,-940.16 634.83,-940.16 631,-936.33 631,-932.5 631,-932.5 631,-924.83 631,-924.83 631,-921 634.83,-917.16 638.67,-917.16 638.67,-917.16 868.33,-917.16 868.33,-917.16 872.17,-917.16 876,-921 876,-924.83 876,-924.83 876,-932.5 876,-932.5 876,-936.33 872.17,-940.16 868.33,-940.16"/>
<text text-anchor="middle" x="753.5" y="-924.96" font-family="Arial" font-size="14.00" fill="#c6c5fe">widgets/ValueCreationWidget.tsx</text>
</g>
<!-- ../utils/widgetRegistry.tsx&#45;&gt;widgets/ValueCreationWidget.tsx -->
<g id="edge26" class="edge">
<title>../utils/widgetRegistry.tsx&#45;&gt;widgets/ValueCreationWidget.tsx</title>
<path fill="none" stroke="#757575" d="M489.86,-899.28C535.83,-904.42 591.36,-910.63 639.5,-916.02"/>
<polygon fill="#757575" stroke="#757575" points="639.33,-919.52 649.65,-917.15 640.11,-912.56 639.33,-919.52"/>
</g>
<!-- common/KeyValuePair.tsx -->
<g id="node26" class="node">
<title>common/KeyValuePair.tsx</title>
<path fill="none" stroke="#c6c5fe" d="M1174.33,-1023.16C1174.33,-1023.16 996.67,-1023.16 996.67,-1023.16 992.83,-1023.16 989,-1019.33 989,-1015.5 989,-1015.5 989,-1007.83 989,-1007.83 989,-1004 992.83,-1000.16 996.67,-1000.16 996.67,-1000.16 1174.33,-1000.16 1174.33,-1000.16 1178.17,-1000.16 1182,-1004 1182,-1007.83 1182,-1007.83 1182,-1015.5 1182,-1015.5 1182,-1019.33 1178.17,-1023.16 1174.33,-1023.16"/>
<text text-anchor="middle" x="1085.5" y="-1007.96" font-family="Arial" font-size="14.00" fill="#c6c5fe">common/KeyValuePair.tsx</text>
</g>
<!-- common/index.ts&#45;&gt;common/KeyValuePair.tsx -->
<g id="edge45" class="edge">
<title>common/index.ts&#45;&gt;common/KeyValuePair.tsx</title>
<path fill="none" stroke="#757575" d="M822.32,-799.7C853.25,-799.86 888.2,-805.9 912,-827.66 967.08,-878.01 893.4,-940.79 948,-991.66 956.9,-999.95 967.64,-1005.74 979.14,-1009.69"/>
<polygon fill="#757575" stroke="#757575" points="978.37,-1013.12 988.95,-1012.6 980.36,-1006.41 978.37,-1013.12"/>
</g>
<!-- common/MetricsCard.tsx -->
<g id="node28" class="node">
<title>common/MetricsCard.tsx</title>
<path fill="none" stroke="#c6c5fe" d="M1172.33,-779.16C1172.33,-779.16 998.67,-779.16 998.67,-779.16 994.83,-779.16 991,-775.33 991,-771.5 991,-771.5 991,-763.83 991,-763.83 991,-760 994.83,-756.16 998.67,-756.16 998.67,-756.16 1172.33,-756.16 1172.33,-756.16 1176.17,-756.16 1180,-760 1180,-763.83 1180,-763.83 1180,-771.5 1180,-771.5 1180,-775.33 1176.17,-779.16 1172.33,-779.16"/>
<text text-anchor="middle" x="1085.5" y="-763.96" font-family="Arial" font-size="14.00" fill="#c6c5fe">common/MetricsCard.tsx</text>
</g>
<!-- common/index.ts&#45;&gt;common/MetricsCard.tsx -->
<g id="edge46" class="edge">
<title>common/index.ts&#45;&gt;common/MetricsCard.tsx</title>
<path fill="none" stroke="#757575" d="M822.08,-799.47C867.69,-793.94 928.77,-786.54 980.53,-780.26"/>
<polygon fill="#757575" stroke="#757575" points="981.24,-783.7 990.75,-779.03 980.4,-776.75 981.24,-783.7"/>
</g>
<!-- common/StatusBadge.tsx -->
<g id="node29" class="node">
<title>common/StatusBadge.tsx</title>
<path fill="none" stroke="#c6c5fe" d="M1175.33,-620.16C1175.33,-620.16 995.67,-620.16 995.67,-620.16 991.83,-620.16 988,-616.33 988,-612.5 988,-612.5 988,-604.83 988,-604.83 988,-601 991.83,-597.16 995.67,-597.16 995.67,-597.16 1175.33,-597.16 1175.33,-597.16 1179.17,-597.16 1183,-601 1183,-604.83 1183,-604.83 1183,-612.5 1183,-612.5 1183,-616.33 1179.17,-620.16 1175.33,-620.16"/>
<text text-anchor="middle" x="1085.5" y="-604.96" font-family="Arial" font-size="14.00" fill="#c6c5fe">common/StatusBadge.tsx</text>
</g>
<!-- common/index.ts&#45;&gt;common/StatusBadge.tsx -->
<g id="edge47" class="edge">
<title>common/index.ts&#45;&gt;common/StatusBadge.tsx</title>
<path fill="none" stroke="#757575" d="M781,-796.15C815.04,-780.25 874.22,-748.7 912,-706.66 935.91,-680.05 919.47,-656.25 948,-634.66 957.08,-627.79 967.44,-622.58 978.32,-618.63"/>
<polygon fill="#757575" stroke="#757575" points="979.56,-621.91 987.98,-615.48 977.39,-615.25 979.56,-621.91"/>
</g>
<!-- common/ValueDisplay.tsx -->
<g id="node30" class="node">
<title>common/ValueDisplay.tsx</title>
<path fill="none" stroke="#c6c5fe" d="M1174.33,-820.16C1174.33,-820.16 996.67,-820.16 996.67,-820.16 992.83,-820.16 989,-816.33 989,-812.5 989,-812.5 989,-804.83 989,-804.83 989,-801 992.83,-797.16 996.67,-797.16 996.67,-797.16 1174.33,-797.16 1174.33,-797.16 1178.17,-797.16 1182,-801 1182,-804.83 1182,-804.83 1182,-812.5 1182,-812.5 1182,-816.33 1178.17,-820.16 1174.33,-820.16"/>
<text text-anchor="middle" x="1085.5" y="-804.96" font-family="Arial" font-size="14.00" fill="#c6c5fe">common/ValueDisplay.tsx</text>
</g>
<!-- common/index.ts&#45;&gt;common/ValueDisplay.tsx -->
<g id="edge48" class="edge">
<title>common/index.ts&#45;&gt;common/ValueDisplay.tsx</title>
<path fill="none" stroke="#757575" d="M822.08,-807.87C867.16,-808 927.35,-808.19 978.72,-808.34"/>
<polygon fill="#757575" stroke="#757575" points="978.85,-811.84 988.87,-808.37 978.88,-804.84 978.85,-811.84"/>
</g>
<!-- common/WidgetContainer.tsx -->
<g id="node31" class="node">
<title>common/WidgetContainer.tsx</title>
<path fill="none" stroke="#c6c5fe" d="M1188.33,-982.16C1188.33,-982.16 982.67,-982.16 982.67,-982.16 978.83,-982.16 975,-978.33 975,-974.5 975,-974.5 975,-966.83 975,-966.83 975,-963 978.83,-959.16 982.67,-959.16 982.67,-959.16 1188.33,-959.16 1188.33,-959.16 1192.17,-959.16 1196,-963 1196,-966.83 1196,-966.83 1196,-974.5 1196,-974.5 1196,-978.33 1192.17,-982.16 1188.33,-982.16"/>
<text text-anchor="middle" x="1085.5" y="-966.96" font-family="Arial" font-size="14.00" fill="#c6c5fe">common/WidgetContainer.tsx</text>
</g>
<!-- common/index.ts&#45;&gt;common/WidgetContainer.tsx -->
<g id="edge49" class="edge">
<title>common/index.ts&#45;&gt;common/WidgetContainer.tsx</title>
<path fill="none" stroke="#757575" d="M822.07,-800.44C852.76,-800.81 887.57,-806.82 912,-827.66 955.34,-864.63 905.02,-913.28 948,-950.66 953.28,-955.26 959.14,-959.06 965.37,-962.2"/>
<polygon fill="#757575" stroke="#757575" points="964.17,-965.5 974.74,-966.33 967,-959.09 964.17,-965.5"/>
</g>
<!-- widgets/BusinessImpactAnalysisWidget.tsx&#45;&gt;../constants/riskConstants.ts -->
<g id="edge52" class="edge">
<title>widgets/BusinessImpactAnalysisWidget.tsx&#45;&gt;../constants/riskConstants.ts</title>
<path fill="none" stroke="#757575" d="M755.49,-480.92C761.09,-422.8 794.24,-164.46 948,-57.66 1107.28,52.97 1189.57,-30.66 1383.5,-30.66 1383.5,-30.66 1383.5,-30.66 1654.5,-30.66 1844.38,-30.66 2048.22,-159.51 2117.15,-207.19"/>
<polygon fill="#757575" stroke="#757575" points="2115.41,-210.24 2125.61,-213.11 2119.42,-204.51 2115.41,-210.24"/>
</g>
<!-- widgets/BusinessImpactAnalysisWidget.tsx&#45;&gt;../constants/uiConstants.ts -->
<g id="edge54" class="edge">
<title>widgets/BusinessImpactAnalysisWidget.tsx&#45;&gt;../constants/uiConstants.ts</title>
<path fill="none" stroke="#757575" d="M781.74,-481.08C818.63,-466.06 886.89,-440.61 948,-430.66 1248.12,-381.81 1608.7,-397.15 1786.61,-409.53"/>
<polygon fill="#757575" stroke="#757575" points="1786.54,-413.03 1796.76,-410.24 1787.03,-406.05 1786.54,-413.03"/>
</g>
<!-- widgets/BusinessImpactAnalysisWidget.tsx&#45;&gt;../types/cia.ts -->
<g id="edge56" class="edge">
<title>widgets/BusinessImpactAnalysisWidget.tsx&#45;&gt;../types/cia.ts</title>
<path fill="none" stroke="#757575" d="M787.18,-481.05C825.22,-468.2 890.24,-448.29 948,-440.66 1119.66,-418 1648.42,-457.43 1832.79,-472.32"/>
<polygon fill="#757575" stroke="#757575" points="1832.62,-475.82 1842.87,-473.14 1833.19,-468.84 1832.62,-475.82"/>
</g>
<!-- widgets/BusinessImpactAnalysisWidget.tsx&#45;&gt;../constants/businessConstants.ts -->
<g id="edge50" class="edge">
<title>widgets/BusinessImpactAnalysisWidget.tsx&#45;&gt;../constants/businessConstants.ts</title>
<path fill="none" stroke="#757575" d="M756.88,-480.85C767.89,-429.6 818.92,-224.99 948,-134.66 1035.05,-73.74 1156.01,-60.12 1248.36,-60.38"/>
<polygon fill="#757575" stroke="#757575" points="1248.59,-63.88 1258.62,-60.47 1248.65,-56.89 1248.59,-63.88"/>
</g>
<!-- widgets/BusinessImpactAnalysisWidget.tsx&#45;&gt;../types/businessImpact.ts -->
<g id="edge55" class="edge">
<title>widgets/BusinessImpactAnalysisWidget.tsx&#45;&gt;../types/businessImpact.ts</title>
<path fill="none" stroke="#757575" d="M757.19,-480.97C769.14,-432.11 822.46,-243.46 948,-172.66 1050.02,-115.13 1393.6,-150.38 1560.28,-171.8"/>
<polygon fill="#757575" stroke="#757575" points="1560.14,-175.31 1570.51,-173.13 1561.04,-168.37 1560.14,-175.31"/>
</g>
<!-- widgets/BusinessImpactAnalysisWidget.tsx&#45;&gt;../constants/index.ts -->
<g id="edge51" class="edge">
<title>widgets/BusinessImpactAnalysisWidget.tsx&#45;&gt;../constants/index.ts</title>
<path fill="none" stroke="#757575" d="M770.31,-481.05C802.69,-457.53 879.33,-403.2 948,-364.66 980.67,-346.33 1019.47,-328.49 1047.34,-316.32"/>
<polygon fill="#757575" stroke="#757575" points="1048.93,-319.45 1056.72,-312.27 1046.15,-313.03 1048.93,-319.45"/>
</g>
<!-- widgets/BusinessImpactAnalysisWidget.tsx&#45;&gt;../constants/testIds.ts -->
<g id="edge53" class="edge">
<title>widgets/BusinessImpactAnalysisWidget.tsx&#45;&gt;../constants/testIds.ts</title>
<path fill="none" stroke="#757575" d="M845.45,-481.14C947.78,-473.28 1113.91,-476.43 1223,-559.66 1340.37,-649.21 1373.28,-842.23 1381.24,-907.54"/>
<polygon fill="#757575" stroke="#757575" points="1377.8,-908.34 1382.41,-917.88 1384.76,-907.54 1377.8,-908.34"/>
</g>
<!-- widgets/BusinessImpactAnalysisWidget.tsx&#45;&gt;common/KeyValuePair.tsx -->
<g id="edge57" class="edge">
<title>widgets/BusinessImpactAnalysisWidget.tsx&#45;&gt;common/KeyValuePair.tsx</title>
<path fill="none" stroke="#757575" d="M810.04,-504.21C845.25,-514.61 888.47,-533.67 912,-567.66 965.82,-645.41 883.2,-922.8 948,-991.66 956.61,-1000.81 967.43,-1007.06 979.18,-1011.19"/>
<polygon fill="#757575" stroke="#757575" points="978.21,-1014.55 988.79,-1014.08 980.22,-1007.85 978.21,-1014.55"/>
</g>
<!-- widgets/BusinessImpactAnalysisWidget.tsx&#45;&gt;common/MetricsCard.tsx -->
<g id="edge58" class="edge">
<title>widgets/BusinessImpactAnalysisWidget.tsx&#45;&gt;common/MetricsCard.tsx</title>
<path fill="none" stroke="#757575" d="M805.77,-504.2C840.94,-514.8 885.83,-534.11 912,-567.66 961.91,-631.65 889.32,-690.61 948,-746.66 957.3,-755.55 968.7,-761.63 980.91,-765.7"/>
<polygon fill="#757575" stroke="#757575" points="980.27,-769.16 990.85,-768.54 982.2,-762.43 980.27,-769.16"/>
</g>
<!-- widgets/BusinessImpactAnalysisWidget.tsx&#45;&gt;common/StatusBadge.tsx -->
<g id="edge59" class="edge">
<title>widgets/BusinessImpactAnalysisWidget.tsx&#45;&gt;common/StatusBadge.tsx</title>
<path fill="none" stroke="#757575" d="M787.35,-504.21C847.36,-525.3 974.68,-570.06 1041.5,-593.55"/>
<polygon fill="#757575" stroke="#757575" points="1040.7,-596.98 1051.29,-596.99 1043.02,-590.37 1040.7,-596.98"/>
</g>
<!-- widgets/BusinessImpactAnalysisWidget.tsx&#45;&gt;common/ValueDisplay.tsx -->
<g id="edge60" class="edge">
<title>widgets/BusinessImpactAnalysisWidget.tsx&#45;&gt;common/ValueDisplay.tsx</title>
<path fill="none" stroke="#757575" d="M807.28,-504.25C842.45,-514.79 886.72,-534 912,-567.66 971.51,-646.88 877.61,-717.94 948,-787.66 956.72,-796.3 967.4,-802.32 978.92,-806.43"/>
<polygon fill="#757575" stroke="#757575" points="978.18,-809.86 988.77,-809.44 980.23,-803.17 978.18,-809.86"/>
</g>
<!-- widgets/ComplianceStatusWidget.tsx&#45;&gt;../constants/appConstants.ts -->
<g id="edge67" class="edge">
<title>widgets/ComplianceStatusWidget.tsx&#45;&gt;../constants/appConstants.ts</title>
<path fill="none" stroke="#757575" d="M1171.66,-1308.11C1259.23,-1294.2 1398.21,-1266.39 1510,-1217.66 1555.02,-1198.04 1602.26,-1165.46 1629.46,-1145.35"/>
<polygon fill="#757575" stroke="#757575" points="1631.64,-1148.08 1637.55,-1139.29 1627.45,-1142.48 1631.64,-1148.08"/>
</g>
<!-- widgets/ComplianceStatusWidget.tsx&#45;&gt;../constants/testIds.ts -->
<g id="edge68" class="edge">
<title>widgets/ComplianceStatusWidget.tsx&#45;&gt;../constants/testIds.ts</title>
<path fill="none" stroke="#757575" d="M1198.25,-1308.05C1207.14,-1304.31 1215.54,-1299.59 1223,-1293.66 1336.71,-1203.23 1371.92,-1015.62 1380.86,-951.61"/>
<polygon fill="#757575" stroke="#757575" points="1384.36,-951.84 1382.2,-941.47 1377.42,-950.93 1384.36,-951.84"/>
</g>
<!-- widgets/CostEstimationWidget.tsx&#45;&gt;../constants/appConstants.ts -->
<g id="edge69" class="edge">
<title>widgets/CostEstimationWidget.tsx&#45;&gt;../constants/appConstants.ts</title>
<path fill="none" stroke="#757575" d="M765.71,-1023.57C794.08,-1054.3 869.54,-1139.8 912,-1223.66 936.58,-1272.2 904.24,-1308.34 948,-1340.66 1049.3,-1415.48 1400.26,-1329.45 1510,-1267.66 1565.29,-1236.53 1614.33,-1178.4 1637.81,-1147.75"/>
<polygon fill="#757575" stroke="#757575" points="1640.78,-1149.63 1644.01,-1139.54 1635.19,-1145.42 1640.78,-1149.63"/>
</g>
<!-- widgets/CostEstimationWidget.tsx&#45;&gt;../constants/testIds.ts -->
<g id="edge70" class="edge">
<title>widgets/CostEstimationWidget.tsx&#45;&gt;../constants/testIds.ts</title>
<path fill="none" stroke="#757575" d="M782.72,-1023.18C857.2,-1051.8 1064.25,-1119.89 1223,-1062.66 1286.17,-1039.89 1342.09,-980.26 1368.08,-949.16"/>
<polygon fill="#757575" stroke="#757575" points="1370.97,-951.15 1374.6,-941.2 1365.55,-946.72 1370.97,-951.15"/>
</g>
<!-- widgets/CostEstimationWidget.tsx&#45;&gt;common/KeyValuePair.tsx -->
<g id="edge71" class="edge">
<title>widgets/CostEstimationWidget.tsx&#45;&gt;common/KeyValuePair.tsx</title>
<path fill="none" stroke="#757575" d="M880.67,-1011.66C913.1,-1011.66 947.65,-1011.66 978.91,-1011.66"/>
<polygon fill="#757575" stroke="#757575" points="978.94,-1015.16 988.94,-1011.66 978.94,-1008.16 978.94,-1015.16"/>
</g>
<!-- widgets/CostEstimationWidget.tsx&#45;&gt;common/ValueDisplay.tsx -->
<g id="edge72" class="edge">
<title>widgets/CostEstimationWidget.tsx&#45;&gt;common/ValueDisplay.tsx</title>
<path fill="none" stroke="#757575" d="M813.3,-1000.11C845.83,-991.12 885,-975.64 912,-949.66 940.68,-922.07 919.78,-895.73 948,-867.66 969.28,-846.5 999.37,-832.4 1025.89,-823.3"/>
<polygon fill="#757575" stroke="#757575" points="1027.05,-826.6 1035.47,-820.17 1024.88,-819.95 1027.05,-826.6"/>
</g>
<!-- widgets/SecuritySummaryWidget.tsx&#45;&gt;../constants/appConstants.ts -->
<g id="edge76" class="edge">
<title>widgets/SecuritySummaryWidget.tsx&#45;&gt;../constants/appConstants.ts</title>
<path fill="none" stroke="#757575" d="M824.46,-860.21C855.1,-868.6 889.2,-883.01 912,-907.66 951.26,-950.11 903.96,-995.2 948,-1032.66 994.88,-1072.54 1161.98,-1057.6 1223,-1065.66 1342.26,-1081.42 1479.85,-1101.64 1566.49,-1114.63"/>
<polygon fill="#757575" stroke="#757575" points="1566.13,-1118.11 1576.54,-1116.14 1567.17,-1111.19 1566.13,-1118.11"/>
</g>
<!-- widgets/SecuritySummaryWidget.tsx&#45;&gt;../types/businessImpact.ts -->
<g id="edge79" class="edge">
<title>widgets/SecuritySummaryWidget.tsx&#45;&gt;../types/businessImpact.ts</title>
<path fill="none" stroke="#757575" d="M890.67,-843.75C898.55,-839.59 905.78,-834.31 912,-827.66 995.36,-738.53 869.96,-373.49 948,-279.66 1021.84,-190.89 1364.12,-181.14 1542.97,-182.31"/>
<polygon fill="#757575" stroke="#757575" points="1543.17,-185.81 1553.2,-182.39 1543.22,-178.81 1543.17,-185.81"/>
</g>
<!-- widgets/SecuritySummaryWidget.tsx&#45;&gt;../constants/testIds.ts -->
<g id="edge77" class="edge">
<title>widgets/SecuritySummaryWidget.tsx&#45;&gt;../constants/testIds.ts</title>
<path fill="none" stroke="#757575" d="M890.73,-842.51C985,-841.09 1112.81,-844.8 1223,-867.66 1269.39,-877.29 1319.9,-898.78 1351.62,-913.74"/>
<polygon fill="#757575" stroke="#757575" points="1350.31,-917 1360.84,-918.16 1353.33,-910.68 1350.31,-917"/>
</g>
<!-- widgets/SecuritySummaryWidget.tsx&#45;&gt;../hooks/useCIAOptions.ts -->
<g id="edge78" class="edge">
<title>widgets/SecuritySummaryWidget.tsx&#45;&gt;../hooks/useCIAOptions.ts</title>
<path fill="none" stroke="#757575" d="M834.12,-860.27C863.11,-868.62 893.33,-882.98 912,-907.66 970.25,-984.66 907.14,-1253.18 948,-1340.66 972.11,-1392.28 1024.88,-1435.15 1057.28,-1457.95"/>
<polygon fill="#757575" stroke="#757575" points="1055.62,-1461.05 1065.84,-1463.83 1059.59,-1455.28 1055.62,-1461.05"/>
</g>
<!-- widgets/SecuritySummaryWidget.tsx&#45;&gt;../types/widgets.ts -->
<g id="edge80" class="edge">
<title>widgets/SecuritySummaryWidget.tsx&#45;&gt;../types/widgets.ts</title>
<path fill="none" stroke="#757575" d="M849.51,-860.18C898.2,-866.08 956.88,-873.19 1003.42,-878.83"/>
<polygon fill="#757575" stroke="#757575" points="1003.11,-882.32 1013.46,-880.05 1003.95,-875.37 1003.11,-882.32"/>
</g>
<!-- widgets/SecuritySummaryWidget.tsx&#45;&gt;common/KeyValuePair.tsx -->
<g id="edge81" class="edge">
<title>widgets/SecuritySummaryWidget.tsx&#45;&gt;common/KeyValuePair.tsx</title>
<path fill="none" stroke="#757575" d="M818.38,-860.23C849.86,-868.75 886.44,-883.27 912,-907.66 941.38,-935.71 915.81,-966.9 948,-991.66 957.18,-998.72 967.76,-1003.83 978.88,-1007.47"/>
<polygon fill="#757575" stroke="#757575" points="978.19,-1010.91 988.77,-1010.3 980.12,-1004.18 978.19,-1010.91"/>
</g>
<!-- widgets/SecuritySummaryWidget.tsx&#45;&gt;common/MetricsCard.tsx -->
<g id="edge82" class="edge">
<title>widgets/SecuritySummaryWidget.tsx&#45;&gt;common/MetricsCard.tsx</title>
<path fill="none" stroke="#757575" d="M890.1,-837.07C897.69,-834.44 905.05,-831.33 912,-827.66 933.16,-816.51 926.92,-798.95 948,-787.66 958.12,-782.24 969.25,-778.15 980.63,-775.07"/>
<polygon fill="#757575" stroke="#757575" points="981.8,-778.39 990.69,-772.63 980.15,-771.59 981.8,-778.39"/>
</g>
<!-- widgets/SecuritySummaryWidget.tsx&#45;&gt;common/StatusBadge.tsx -->
<g id="edge83" class="edge">
<title>widgets/SecuritySummaryWidget.tsx&#45;&gt;common/StatusBadge.tsx</title>
<path fill="none" stroke="#757575" d="M890.53,-842.52C898.34,-838.63 905.6,-833.74 912,-827.66 975.28,-767.58 886.42,-696.48 948,-634.66 956.51,-626.12 966.91,-619.92 978.12,-615.47"/>
<polygon fill="#757575" stroke="#757575" points="979.42,-618.73 987.72,-612.14 977.12,-612.12 979.42,-618.73"/>
</g>
<!-- widgets/SecuritySummaryWidget.tsx&#45;&gt;common/ValueDisplay.tsx -->
<g id="edge84" class="edge">
<title>widgets/SecuritySummaryWidget.tsx&#45;&gt;common/ValueDisplay.tsx</title>
<path fill="none" stroke="#757575" d="M849.51,-837.15C890.14,-832.22 937.73,-826.45 979.41,-821.4"/>
<polygon fill="#757575" stroke="#757575" points="980.09,-824.84 989.59,-820.17 979.24,-817.89 980.09,-824.84"/>
</g>
<!-- widgets/ValueCreationWidget.tsx&#45;&gt;../constants/appConstants.ts -->
<g id="edge91" class="edge">
<title>widgets/ValueCreationWidget.tsx&#45;&gt;../constants/appConstants.ts</title>
<path fill="none" stroke="#757575" d="M809.37,-940.22C842.34,-949.49 883.32,-965.42 912,-991.66 938.1,-1015.54 918.74,-1042.78 948,-1062.66 1147.03,-1197.88 1453.98,-1164.22 1587.15,-1140.96"/>
<polygon fill="#757575" stroke="#757575" points="1587.97,-1144.37 1597.2,-1139.16 1586.74,-1137.47 1587.97,-1144.37"/>
</g>
<!-- widgets/ValueCreationWidget.tsx&#45;&gt;../constants/testIds.ts -->
<g id="edge92" class="edge">
<title>widgets/ValueCreationWidget.tsx&#45;&gt;../constants/testIds.ts</title>
<path fill="none" stroke="#757575" d="M798.68,-940.23C831.87,-950.31 877.37,-967.18 912,-991.66 931.8,-1005.66 925.91,-1022.66 948,-1032.66 1059.34,-1083.07 1105.72,-1067.06 1223,-1032.66 1279.39,-1016.12 1334.73,-973.01 1363.38,-948.12"/>
<polygon fill="#757575" stroke="#757575" points="1365.89,-950.57 1371.06,-941.32 1361.25,-945.33 1365.89,-950.57"/>
</g>
<!-- widgets/ValueCreationWidget.tsx&#45;&gt;../types/widgets.ts -->
<g id="edge93" class="edge">
<title>widgets/ValueCreationWidget.tsx&#45;&gt;../types/widgets.ts</title>
<path fill="none" stroke="#757575" d="M849.51,-917.15C898.2,-911.24 956.88,-904.13 1003.42,-898.49"/>
<polygon fill="#757575" stroke="#757575" points="1003.95,-901.95 1013.46,-897.27 1003.11,-895 1003.95,-901.95"/>
</g>
<!-- widgets/ValueCreationWidget.tsx&#45;&gt;../utils/typeGuards.ts -->
<g id="edge94" class="edge">
<title>widgets/ValueCreationWidget.tsx&#45;&gt;../utils/typeGuards.ts</title>
<path fill="none" stroke="#757575" d="M826,-917.07C856.59,-908.57 890.2,-893.91 912,-868.66 960.48,-812.5 895.06,-757.64 948,-705.66 991.72,-662.74 1383.05,-602.09 1562.87,-576.18"/>
<polygon fill="#757575" stroke="#757575" points="1563.43,-579.64 1572.83,-574.75 1562.44,-572.71 1563.43,-579.64"/>
</g>
<!-- widgets/ValueCreationWidget.tsx&#45;&gt;common/KeyValuePair.tsx -->
<g id="edge95" class="edge">
<title>widgets/ValueCreationWidget.tsx&#45;&gt;common/KeyValuePair.tsx</title>
<path fill="none" stroke="#757575" d="M784.55,-940.21C822.21,-954.26 889.01,-977.84 948,-991.66 958.73,-994.18 970.02,-996.43 981.31,-998.44"/>
<polygon fill="#757575" stroke="#757575" points="980.77,-1001.9 991.22,-1000.15 981.96,-995 980.77,-1001.9"/>
</g>
<!-- widgets/ValueCreationWidget.tsx&#45;&gt;common/ValueDisplay.tsx -->
<g id="edge96" class="edge">
<title>widgets/ValueCreationWidget.tsx&#45;&gt;common/ValueDisplay.tsx</title>
<path fill="none" stroke="#757575" d="M786.14,-917.16C845.98,-895.39 975.73,-848.21 1042.67,-823.87"/>
<polygon fill="#757575" stroke="#757575" points="1044.27,-827.02 1052.47,-820.31 1041.88,-820.44 1044.27,-827.02"/>
</g>
<!-- Dashboard.tsx -->
<g id="node22" class="node">
<title>Dashboard.tsx</title>
<path fill="none" stroke="#c6c5fe" d="M147.33,-1467.16C147.33,-1467.16 45.67,-1467.16 45.67,-1467.16 41.83,-1467.16 38,-1463.33 38,-1459.5 38,-1459.5 38,-1451.83 38,-1451.83 38,-1448 41.83,-1444.16 45.67,-1444.16 45.67,-1444.16 147.33,-1444.16 147.33,-1444.16 151.17,-1444.16 155,-1448 155,-1451.83 155,-1451.83 155,-1459.5 155,-1459.5 155,-1463.33 151.17,-1467.16 147.33,-1467.16"/>
<text text-anchor="middle" x="96.5" y="-1451.96" font-family="Arial" font-size="14.00" fill="#c6c5fe">Dashboard.tsx</text>
</g>
<!-- Dashboard.tsx&#45;&gt;../constants/appConstants.ts -->
<g id="edge27" class="edge">
<title>Dashboard.tsx&#45;&gt;../constants/appConstants.ts</title>
<path fill="none" stroke="#757575" d="M155.03,-1464.33C167.85,-1467.34 181.15,-1471.35 193,-1476.66 211.01,-1484.73 210.4,-1496.05 229,-1502.66 382.53,-1557.21 432.13,-1518.99 595,-1523.66 1001.68,-1535.32 1183.1,-1738.86 1510,-1496.66 1626.6,-1410.27 1647.8,-1215.08 1651.65,-1149.57"/>
<polygon fill="#757575" stroke="#757575" points="1655.16,-1149.39 1652.17,-1139.22 1648.17,-1149.04 1655.16,-1149.39"/>
</g>
<!-- Dashboard.tsx&#45;&gt;../constants/testIds.ts -->
<g id="edge28" class="edge">
<title>Dashboard.tsx&#45;&gt;../constants/testIds.ts</title>
<path fill="none" stroke="#757575" d="M101.8,-1443.75C114.89,-1409.39 157.7,-1309.64 229,-1263.66 606.05,-1020.51 824.31,-1293.4 1223,-1087.66 1288.71,-1053.75 1344.92,-983.73 1369.81,-949.45"/>
<polygon fill="#757575" stroke="#757575" points="1372.76,-951.34 1375.72,-941.16 1367.06,-947.27 1372.76,-951.34"/>
</g>
<!-- Dashboard.tsx&#45;&gt;../hooks/useCIAOptions.ts -->
<g id="edge29" class="edge">
<title>Dashboard.tsx&#45;&gt;../hooks/useCIAOptions.ts</title>
<path fill="none" stroke="#757575" d="M155.19,-1456.83C315.74,-1460.08 769.56,-1469.28 977.74,-1473.5"/>
<polygon fill="#757575" stroke="#757575" points="977.7,-1477 987.77,-1473.7 977.84,-1470 977.7,-1477"/>
</g>
<!-- Dashboard.tsx&#45;&gt;../styles/gridStyles.ts -->
<g id="edge30" class="edge">
<title>Dashboard.tsx&#45;&gt;../styles/gridStyles.ts</title>
<path fill="none" stroke="#757575" d="M155.18,-1451.76C197.12,-1448.92 254.73,-1445.02 302.74,-1441.77"/>
<polygon fill="#757575" stroke="#757575" points="303.09,-1445.25 312.83,-1441.09 302.62,-1438.27 303.09,-1445.25"/>
</g>
<!-- Dashboard.tsx&#45;&gt;../utils/widgetRegistry.tsx -->
<g id="edge31" class="edge">
<title>Dashboard.tsx&#45;&gt;../utils/widgetRegistry.tsx</title>
<path fill="none" stroke="#757575" d="M101.8,-1444.06C117.11,-1403.11 171.19,-1261.92 229,-1151.66 278.35,-1057.54 349.17,-952.1 378.96,-908.84"/>
<polygon fill="#757575" stroke="#757575" points="382.02,-910.56 384.83,-900.35 376.26,-906.58 382.02,-910.56"/>
</g>
<!-- common/WidgetHeader.tsx -->
<g id="node23" class="node">
<title>common/WidgetHeader.tsx</title>
<path fill="none" stroke="#c6c5fe" d="M1478.83,-1487.16C1478.83,-1487.16 1290.17,-1487.16 1290.17,-1487.16 1286.33,-1487.16 1282.5,-1483.33 1282.5,-1479.5 1282.5,-1479.5 1282.5,-1471.83 1282.5,-1471.83 1282.5,-1468 1286.33,-1464.16 1290.17,-1464.16 1290.17,-1464.16 1478.83,-1464.16 1478.83,-1464.16 1482.67,-1464.16 1486.5,-1468 1486.5,-1471.83 1486.5,-1471.83 1486.5,-1479.5 1486.5,-1479.5 1486.5,-1483.33 1482.67,-1487.16 1478.83,-1487.16"/>
<text text-anchor="middle" x="1384.5" y="-1471.96" font-family="Arial" font-size="14.00" fill="#c6c5fe">common/WidgetHeader.tsx</text>
</g>
<!-- Dashboard.tsx&#45;&gt;common/WidgetHeader.tsx -->
<g id="edge32" class="edge">
<title>Dashboard.tsx&#45;&gt;common/WidgetHeader.tsx</title>
<path fill="none" stroke="#757575" d="M155.25,-1466C178.14,-1469.69 204.74,-1473.47 229,-1475.66 669.09,-1515.41 782.06,-1525.39 1223,-1496.66 1248.39,-1495.01 1275.89,-1491.9 1300.84,-1488.57"/>
<polygon fill="#757575" stroke="#757575" points="1301.55,-1492 1310.99,-1487.18 1300.61,-1485.07 1301.55,-1492"/>
</g>
<!-- common/WidgetHeader.tsx&#45;&gt;../constants/appConstants.ts -->
<g id="edge44" class="edge">
<title>common/WidgetHeader.tsx&#45;&gt;../constants/appConstants.ts</title>
<path fill="none" stroke="#757575" d="M1485,-1464.14C1494.01,-1460.44 1502.53,-1455.7 1510,-1449.66 1608.69,-1369.85 1641.03,-1207.7 1649.73,-1149.27"/>
<polygon fill="#757575" stroke="#757575" points="1653.2,-1149.7 1651.13,-1139.31 1646.27,-1148.72 1653.2,-1149.7"/>
</g>
<!-- RadarChart.tsx -->
<g id="node24" class="node">
<title>RadarChart.tsx</title>
<path fill="none" stroke="#c6c5fe" d="M1138.83,-738.16C1138.83,-738.16 1032.17,-738.16 1032.17,-738.16 1028.33,-738.16 1024.5,-734.33 1024.5,-730.5 1024.5,-730.5 1024.5,-722.83 1024.5,-722.83 1024.5,-719 1028.33,-715.16 1032.17,-715.16 1032.17,-715.16 1138.83,-715.16 1138.83,-715.16 1142.67,-715.16 1146.5,-719 1146.5,-722.83 1146.5,-722.83 1146.5,-730.5 1146.5,-730.5 1146.5,-734.33 1142.67,-738.16 1138.83,-738.16"/>
<text text-anchor="middle" x="1085.5" y="-722.96" font-family="Arial" font-size="14.00" fill="#c6c5fe">RadarChart.tsx</text>
</g>
<!-- RadarChart.tsx&#45;&gt;../constants/testIds.ts -->
<g id="edge33" class="edge">
<title>RadarChart.tsx&#45;&gt;../constants/testIds.ts</title>
<path fill="none" stroke="#757575" d="M1146.81,-726.5C1171.66,-728.66 1199.96,-734.13 1223,-746.66 1294.53,-785.56 1349.3,-869.57 1372.03,-908.75"/>
<polygon fill="#757575" stroke="#757575" points="1369.12,-910.72 1377.1,-917.69 1375.21,-907.26 1369.12,-910.72"/>
</g>
<!-- SecurityLevelSelector.tsx -->
<g id="node25" class="node">
<title>SecurityLevelSelector.tsx</title>
<path fill="none" stroke="#c6c5fe" d="M840.83,-1255.16C840.83,-1255.16 666.17,-1255.16 666.17,-1255.16 662.33,-1255.16 658.5,-1251.33 658.5,-1247.5 658.5,-1247.5 658.5,-1239.83 658.5,-1239.83 658.5,-1236 662.33,-1232.16 666.17,-1232.16 666.17,-1232.16 840.83,-1232.16 840.83,-1232.16 844.67,-1232.16 848.5,-1236 848.5,-1239.83 848.5,-1239.83 848.5,-1247.5 848.5,-1247.5 848.5,-1251.33 844.67,-1255.16 840.83,-1255.16"/>
<text text-anchor="middle" x="753.5" y="-1239.96" font-family="Arial" font-size="14.00" fill="#c6c5fe">SecurityLevelSelector.tsx</text>
</g>
<!-- SecurityLevelSelector.tsx&#45;&gt;../constants/appConstants.ts -->
<g id="edge34" class="edge">
<title>SecurityLevelSelector.tsx&#45;&gt;../constants/appConstants.ts</title>
<path fill="none" stroke="#757575" d="M766.26,-1255.39C794.53,-1282.67 869.8,-1349.83 948,-1373.66 1067.47,-1410.07 1401.8,-1436.03 1510,-1373.66 1596.45,-1323.83 1635.23,-1199.29 1647.71,-1149.11"/>
<polygon fill="#757575" stroke="#757575" points="1651.13,-1149.87 1650.05,-1139.33 1644.32,-1148.24 1651.13,-1149.87"/>
</g>
<!-- SecurityLevelSelector.tsx&#45;&gt;../constants/testIds.ts -->
<g id="edge35" class="edge">
<title>SecurityLevelSelector.tsx&#45;&gt;../constants/testIds.ts</title>
<path fill="none" stroke="#757575" d="M848.56,-1252.86C949.15,-1257.98 1109.5,-1252.08 1223,-1179.66 1310.7,-1123.71 1359.84,-1000.73 1376.74,-951.08"/>
<polygon fill="#757575" stroke="#757575" points="1380.13,-951.98 1379.94,-941.39 1373.48,-949.79 1380.13,-951.98"/>
</g>
<!-- SecurityLevelSelector.tsx&#45;&gt;../hooks/useCIAOptions.ts -->
<g id="edge36" class="edge">
<title>SecurityLevelSelector.tsx&#45;&gt;../hooks/useCIAOptions.ts</title>
<path fill="none" stroke="#757575" d="M765.79,-1255.52C794.22,-1284.88 871.92,-1362.18 948,-1411.66 978.52,-1431.51 1016.17,-1448.69 1044.2,-1460.23"/>
<polygon fill="#757575" stroke="#757575" points="1043.1,-1463.56 1053.68,-1464.08 1045.73,-1457.08 1043.1,-1463.56"/>
</g>
<!-- SecurityLevelSelector.tsx&#45;&gt;common/KeyValuePair.tsx -->
<g id="edge37" class="edge">
<title>SecurityLevelSelector.tsx&#45;&gt;common/KeyValuePair.tsx</title>
<path fill="none" stroke="#757575" d="M770.86,-1232.16C824.52,-1194.43 995.37,-1074.32 1059.69,-1029.1"/>
<polygon fill="#757575" stroke="#757575" points="1061.87,-1031.85 1068.04,-1023.24 1057.84,-1026.12 1061.87,-1031.85"/>
</g>
<!-- common/KeyValuePair.tsx&#45;&gt;../constants/testIds.ts -->
<g id="edge39" class="edge">
<title>common/KeyValuePair.tsx&#45;&gt;../constants/testIds.ts</title>
<path fill="none" stroke="#757575" d="M1182.14,-1000.42C1195.95,-998 1209.91,-995.1 1223,-991.66 1267.9,-979.86 1317.44,-959.53 1349.44,-945.39"/>
<polygon fill="#757575" stroke="#757575" points="1351.08,-948.49 1358.78,-941.21 1348.22,-942.1 1351.08,-948.49"/>
</g>
<!-- Selection.tsx -->
<g id="node27" class="node">
<title>Selection.tsx</title>
<path fill="none" stroke="#c6c5fe" d="M1130.33,-941.16C1130.33,-941.16 1040.67,-941.16 1040.67,-941.16 1036.83,-941.16 1033,-937.33 1033,-933.5 1033,-933.5 1033,-925.83 1033,-925.83 1033,-922 1036.83,-918.16 1040.67,-918.16 1040.67,-918.16 1130.33,-918.16 1130.33,-918.16 1134.17,-918.16 1138,-922 1138,-925.83 1138,-925.83 1138,-933.5 1138,-933.5 1138,-937.33 1134.17,-941.16 1130.33,-941.16"/>
<text text-anchor="middle" x="1085.5" y="-925.96" font-family="Arial" font-size="14.00" fill="#c6c5fe">Selection.tsx</text>
</g>
<!-- Selection.tsx&#45;&gt;../constants/testIds.ts -->
<g id="edge38" class="edge">
<title>Selection.tsx&#45;&gt;../constants/testIds.ts</title>
<path fill="none" stroke="#757575" d="M1138.23,-929.66C1180.21,-929.66 1240.47,-929.66 1290.75,-929.66"/>
<polygon fill="#757575" stroke="#757575" points="1290.99,-933.16 1300.99,-929.66 1290.99,-926.16 1290.99,-933.16"/>
</g>
<!-- common/MetricsCard.tsx&#45;&gt;../constants/testIds.ts -->
<g id="edge40" class="edge">
<title>common/MetricsCard.tsx&#45;&gt;../constants/testIds.ts</title>
<path fill="none" stroke="#757575" d="M1180.02,-774.01C1194.82,-777.08 1209.64,-781.46 1223,-787.66 1285.61,-816.75 1341.78,-878.27 1367.95,-909.93"/>
<polygon fill="#757575" stroke="#757575" points="1365.5,-912.46 1374.52,-918.01 1370.93,-908.05 1365.5,-912.46"/>
</g>
<!-- common/StatusBadge.tsx&#45;&gt;../constants/testIds.ts -->
<g id="edge41" class="edge">
<title>common/StatusBadge.tsx&#45;&gt;../constants/testIds.ts</title>
<path fill="none" stroke="#757575" d="M1125.52,-620.23C1154.86,-630.41 1194.7,-647.57 1223,-672.66 1302.02,-742.74 1355.81,-860.97 1375.35,-908.72"/>
<polygon fill="#757575" stroke="#757575" points="1372.12,-910.07 1379.09,-918.05 1378.61,-907.46 1372.12,-910.07"/>
</g>
<!-- common/ValueDisplay.tsx&#45;&gt;../constants/testIds.ts -->
<g id="edge42" class="edge">
<title>common/ValueDisplay.tsx&#45;&gt;../constants/testIds.ts</title>
<path fill="none" stroke="#757575" d="M1171.86,-820.21C1189.1,-823.84 1206.87,-828.56 1223,-834.66 1275.1,-854.35 1329.65,-890.48 1359.84,-912.06"/>
<polygon fill="#757575" stroke="#757575" points="1357.88,-914.96 1368.04,-917.99 1361.99,-909.29 1357.88,-914.96"/>
</g>
<!-- common/WidgetContainer.tsx&#45;&gt;../constants/testIds.ts -->
<g id="edge43" class="edge">
<title>common/WidgetContainer.tsx&#45;&gt;../constants/testIds.ts</title>
<path fill="none" stroke="#757575" d="M1170.02,-959.13C1207.58,-953.95 1252.06,-947.81 1290.66,-942.48"/>
<polygon fill="#757575" stroke="#757575" points="1291.43,-945.9 1300.86,-941.07 1290.48,-938.97 1291.43,-945.9"/>
</g>
<!-- widgets/CIAImpactSummaryWidget.tsx -->
<g id="node32" class="node">
<title>widgets/CIAImpactSummaryWidget.tsx</title>
<path fill="none" stroke="#c6c5fe" d="M890.33,-698.16C890.33,-698.16 616.67,-698.16 616.67,-698.16 612.83,-698.16 609,-694.33 609,-690.5 609,-690.5 609,-682.83 609,-682.83 609,-679 612.83,-675.16 616.67,-675.16 616.67,-675.16 890.33,-675.16 890.33,-675.16 894.17,-675.16 898,-679 898,-682.83 898,-682.83 898,-690.5 898,-690.5 898,-694.33 894.17,-698.16 890.33,-698.16"/>
<text text-anchor="middle" x="753.5" y="-682.96" font-family="Arial" font-size="14.00" fill="#c6c5fe">widgets/CIAImpactSummaryWidget.tsx</text>
</g>
<!-- widgets/CIAImpactSummaryWidget.tsx&#45;&gt;../constants/testIds.ts -->
<g id="edge61" class="edge">
<title>widgets/CIAImpactSummaryWidget.tsx&#45;&gt;../constants/testIds.ts</title>
<path fill="none" stroke="#757575" d="M804.72,-675.15C894.75,-657.33 1086.88,-632.22 1223,-705.66 1307.16,-751.07 1357.74,-862.13 1375.88,-908.64"/>
<polygon fill="#757575" stroke="#757575" points="1372.62,-909.91 1379.43,-918.02 1379.16,-907.43 1372.62,-909.91"/>
</g>
<!-- widgets/CIAImpactSummaryWidget.tsx&#45;&gt;common/ValueDisplay.tsx -->
<g id="edge62" class="edge">
<title>widgets/CIAImpactSummaryWidget.tsx&#45;&gt;common/ValueDisplay.tsx</title>
<path fill="none" stroke="#757575" d="M771.77,-698.19C804.59,-719.51 878.86,-764.99 948,-787.66 957.84,-790.89 968.25,-793.62 978.75,-795.94"/>
<polygon fill="#757575" stroke="#757575" points="978.33,-799.43 988.83,-798.04 979.75,-792.58 978.33,-799.43"/>
</g>
<!-- widgets/CombinedBusinessImpactWidget.tsx -->
<g id="node33" class="node">
<title>widgets/CombinedBusinessImpactWidget.tsx</title>
<path fill="none" stroke="#c6c5fe" d="M551.33,-601.16C551.33,-601.16 236.67,-601.16 236.67,-601.16 232.83,-601.16 229,-597.33 229,-593.5 229,-593.5 229,-585.83 229,-585.83 229,-582 232.83,-578.16 236.67,-578.16 236.67,-578.16 551.33,-578.16 551.33,-578.16 555.17,-578.16 559,-582 559,-585.83 559,-585.83 559,-593.5 559,-593.5 559,-597.33 555.17,-601.16 551.33,-601.16"/>
<text text-anchor="middle" x="394" y="-585.96" font-family="Arial" font-size="14.00" fill="#c6c5fe">widgets/CombinedBusinessImpactWidget.tsx</text>
</g>
<!-- widgets/CombinedBusinessImpactWidget.tsx&#45;&gt;../types/cia.ts -->
<g id="edge63" class="edge">
<title>widgets/CombinedBusinessImpactWidget.tsx&#45;&gt;../types/cia.ts</title>
<path fill="none" stroke="#757575" d="M401.84,-577.99C424.29,-540.74 499.81,-423.81 595,-366.66 733.54,-283.49 787.59,-299.14 948,-279.66 1309.09,-235.82 1468.91,-156.89 1761,-373.66 1787.52,-393.34 1772.14,-416.93 1797,-438.66 1808.91,-449.08 1823.92,-456.87 1838.66,-462.64"/>
<polygon fill="#757575" stroke="#757575" points="1837.68,-466.01 1848.28,-466.15 1840.08,-459.43 1837.68,-466.01"/>
</g>
<!-- widgets/CombinedBusinessImpactWidget.tsx&#45;&gt;../types/widgets.ts -->
<g id="edge64" class="edge">
<title>widgets/CombinedBusinessImpactWidget.tsx&#45;&gt;../types/widgets.ts</title>
<path fill="none" stroke="#757575" d="M399.02,-601.27C415.14,-645.83 479.88,-806.54 595,-868.66 663.19,-905.46 882.24,-900.01 1002.89,-893.81"/>
<polygon fill="#757575" stroke="#757575" points="1003.38,-897.29 1013.19,-893.27 1003.02,-890.3 1003.38,-897.29"/>
</g>
<!-- widgets/CombinedBusinessImpactWidget.tsx&#45;&gt;widgets/BusinessImpactAnalysisWidget.tsx -->
<g id="edge65" class="edge">
<title>widgets/CombinedBusinessImpactWidget.tsx&#45;&gt;widgets/BusinessImpactAnalysisWidget.tsx</title>
<path fill="none" stroke="#757575" d="M437.41,-578.15C503.04,-560.35 629.02,-526.16 700.2,-506.85"/>
<polygon fill="#757575" stroke="#757575" points="701.13,-510.23 709.86,-504.23 699.3,-503.47 701.13,-510.23"/>
</g>
<!-- widgets/CombinedBusinessImpactWidget.tsx&#45;&gt;widgets/CIAImpactSummaryWidget.tsx -->
<g id="edge66" class="edge">
<title>widgets/CombinedBusinessImpactWidget.tsx&#45;&gt;widgets/CIAImpactSummaryWidget.tsx</title>
<path fill="none" stroke="#757575" d="M437.41,-601.17C503.04,-618.98 629.02,-653.16 700.2,-672.47"/>
<polygon fill="#757575" stroke="#757575" points="699.3,-675.85 709.86,-675.09 701.13,-669.1 699.3,-675.85"/>
</g>
<!-- widgets/SecurityLevelWidget.tsx -->
<g id="node34" class="node">
<title>widgets/SecurityLevelWidget.tsx</title>
<path fill="none" stroke="#c6c5fe" d="M507.33,-1295.16C507.33,-1295.16 280.67,-1295.16 280.67,-1295.16 276.83,-1295.16 273,-1291.33 273,-1287.5 273,-1287.5 273,-1279.83 273,-1279.83 273,-1276 276.83,-1272.16 280.67,-1272.16 280.67,-1272.16 507.33,-1272.16 507.33,-1272.16 511.17,-1272.16 515,-1276 515,-1279.83 515,-1279.83 515,-1287.5 515,-1287.5 515,-1291.33 511.17,-1295.16 507.33,-1295.16"/>
<text text-anchor="middle" x="394" y="-1279.96" font-family="Arial" font-size="14.00" fill="#c6c5fe">widgets/SecurityLevelWidget.tsx</text>
</g>
<!-- widgets/SecurityLevelWidget.tsx&#45;&gt;../constants/appConstants.ts -->
<g id="edge73" class="edge">
<title>widgets/SecurityLevelWidget.tsx&#45;&gt;../constants/appConstants.ts</title>
<path fill="none" stroke="#757575" d="M433.4,-1295.17C522.68,-1321.25 751.55,-1384.25 948,-1405.66 1072.15,-1419.19 1415.85,-1487.72 1510,-1405.66 1595.78,-1330.9 1471.5,-1234 1544.91,-1147.07"/>
<polygon fill="#757575" stroke="#757575" points="1547.67,-1149.23 1551.84,-1139.49 1542.5,-1144.51 1547.67,-1149.23"/>
</g>
<!-- widgets/SecurityLevelWidget.tsx&#45;&gt;../constants/testIds.ts -->
<g id="edge74" class="edge">
<title>widgets/SecurityLevelWidget.tsx&#45;&gt;../constants/testIds.ts</title>
<path fill="none" stroke="#757575" d="M515.1,-1290.32C716.39,-1299.15 1110.85,-1305.7 1223,-1229.66 1323.84,-1161.29 1366.37,-1008.36 1379.1,-951.5"/>
<polygon fill="#757575" stroke="#757575" points="1382.57,-951.98 1381.25,-941.46 1375.73,-950.51 1382.57,-951.98"/>
</g>
<!-- widgets/SecurityLevelWidget.tsx&#45;&gt;SecurityLevelSelector.tsx -->
<g id="edge75" class="edge">
<title>widgets/SecurityLevelWidget.tsx&#45;&gt;SecurityLevelSelector.tsx</title>
<path fill="none" stroke="#757575" d="M497.92,-1272.15C545.11,-1266.87 600.94,-1260.62 648.28,-1255.32"/>
<polygon fill="#757575" stroke="#757575" points="648.69,-1258.8 658.24,-1254.21 647.92,-1251.84 648.69,-1258.8"/>
</g>
<!-- widgets/TechnicalDetailsWidget.tsx -->
<g id="node35" class="node">
<title>widgets/TechnicalDetailsWidget.tsx</title>
<path fill="none" stroke="#c6c5fe" d="M875.83,-600.16C875.83,-600.16 631.17,-600.16 631.17,-600.16 627.33,-600.16 623.5,-596.33 623.5,-592.5 623.5,-592.5 623.5,-584.83 623.5,-584.83 623.5,-581 627.33,-577.16 631.17,-577.16 631.17,-577.16 875.83,-577.16 875.83,-577.16 879.67,-577.16 883.5,-581 883.5,-584.83 883.5,-584.83 883.5,-592.5 883.5,-592.5 883.5,-596.33 879.67,-600.16 875.83,-600.16"/>
<text text-anchor="middle" x="753.5" y="-584.96" font-family="Arial" font-size="14.00" fill="#c6c5fe">widgets/TechnicalDetailsWidget.tsx</text>
</g>
<!-- widgets/TechnicalDetailsWidget.tsx&#45;&gt;../constants/appConstants.ts -->
<g id="edge85" class="edge">
<title>widgets/TechnicalDetailsWidget.tsx&#45;&gt;../constants/appConstants.ts</title>
<path fill="none" stroke="#757575" d="M785.17,-577.07C862.9,-549.68 1072.13,-488.4 1223,-559.66 1471.14,-676.87 1611.88,-1017.87 1644.91,-1106.44"/>
<polygon fill="#757575" stroke="#757575" points="1641.67,-1107.78 1648.4,-1115.96 1648.24,-1105.37 1641.67,-1107.78"/>
</g>
<!-- widgets/TechnicalDetailsWidget.tsx&#45;&gt;../types/cia.ts -->
<g id="edge87" class="edge">
<title>widgets/TechnicalDetailsWidget.tsx&#45;&gt;../types/cia.ts</title>
<path fill="none" stroke="#757575" d="M780.78,-577.04C817.41,-561.46 886.28,-534.41 948,-522.66 1118.16,-490.28 1647.88,-480.74 1832.65,-478.36"/>
<polygon fill="#757575" stroke="#757575" points="1832.8,-481.86 1842.75,-478.23 1832.71,-474.86 1832.8,-481.86"/>
</g>
<!-- widgets/TechnicalDetailsWidget.tsx&#45;&gt;../constants/testIds.ts -->
<g id="edge86" class="edge">
<title>widgets/TechnicalDetailsWidget.tsx&#45;&gt;../constants/testIds.ts</title>
<path fill="none" stroke="#757575" d="M845.71,-577.16C964.08,-564.12 1162.63,-549.3 1223,-587.66 1237.97,-597.17 1342.28,-834.89 1374.22,-908.28"/>
<polygon fill="#757575" stroke="#757575" points="1371.2,-910.1 1378.39,-917.87 1377.62,-907.31 1371.2,-910.1"/>
</g>
<!-- widgets/TechnicalDetailsWidget.tsx&#45;&gt;common/KeyValuePair.tsx -->
<g id="edge88" class="edge">
<title>widgets/TechnicalDetailsWidget.tsx&#45;&gt;common/KeyValuePair.tsx</title>
<path fill="none" stroke="#757575" d="M806.73,-600.18C842.36,-610.91 887.4,-630.69 912,-665.66 953.93,-725.27 897.39,-939.22 948,-991.66 956.58,-1000.55 967.24,-1006.67 978.79,-1010.77"/>
<polygon fill="#757575" stroke="#757575" points="978.1,-1014.22 988.68,-1013.76 980.12,-1007.52 978.1,-1014.22"/>
</g>
<!-- widgets/TechnicalDetailsWidget.tsx&#45;&gt;common/StatusBadge.tsx -->
<g id="edge89" class="edge">
<title>widgets/TechnicalDetailsWidget.tsx&#45;&gt;common/StatusBadge.tsx</title>
<path fill="none" stroke="#757575" d="M883.5,-596.48C914.69,-598.37 947.67,-600.37 977.71,-602.19"/>
<polygon fill="#757575" stroke="#757575" points="977.58,-605.69 987.77,-602.8 978,-598.7 977.58,-605.69"/>
</g>
<!-- widgets/TechnicalDetailsWidget.tsx&#45;&gt;common/ValueDisplay.tsx -->
<g id="edge90" class="edge">
<title>widgets/TechnicalDetailsWidget.tsx&#45;&gt;common/ValueDisplay.tsx</title>
<path fill="none" stroke="#757575" d="M800.5,-600.18C835.8,-611.31 883.22,-631.6 912,-665.66 948.49,-708.85 905.43,-750.46 948,-787.66 957.03,-795.55 967.73,-801.16 979.12,-805.08"/>
<polygon fill="#757575" stroke="#757575" points="978.24,-808.47 988.83,-807.98 980.25,-801.76 978.24,-808.47"/>
</g>
</g>
</svg>
